solid OpenSCAD_Model
  facet normal -0.866016 -0.500016 -0
    outer loop
      vertex -29.238 0 0
      vertex -24.619 -8 0
      vertex -29.238 0 31
    endloop
  endfacet
  facet normal -0.866016 -0.500016 0
    outer loop
      vertex -29.238 0 31
      vertex -24.619 -8 0
      vertex -24.619 -8 31
    endloop
  endfacet
  facet normal 0 0 -1
    outer loop
      vertex -29.238 0 0
      vertex -24.619 0 0
      vertex -24.619 -8 0
    endloop
  endfacet
  facet normal 0 -0 -1
    outer loop
      vertex -22.309 4 0
      vertex -24.619 8 0
      vertex -16.619 8 0
    endloop
  endfacet
  facet normal 0 -0 -1
    outer loop
      vertex -16.619 8 0
      vertex -16.619 23 0
      vertex -7.381 23 0
    endloop
  endfacet
  facet normal 0 -0 -1
    outer loop
      vertex -24.619 0 0
      vertex -24.619 8 0
      vertex -22.309 4 0
    endloop
  endfacet
  facet normal 0 0 -1
    outer loop
      vertex -22.309 -4 0
      vertex -24.619 -8 0
      vertex -24.619 0 0
    endloop
  endfacet
  facet normal -0 0 -1
    outer loop
      vertex -29.238 0 0
      vertex -24.619 8 0
      vertex -24.619 0 0
    endloop
  endfacet
  facet normal -0 0 -1
    outer loop
      vertex -24.619 -8 0
      vertex -7.381 -4 0
      vertex -7.381 -8 0
    endloop
  endfacet
  facet normal -0 0 -1
    outer loop
      vertex -16.619 8 0
      vertex -7.381 23 0
      vertex -7.381 4 0
    endloop
  endfacet
  facet normal -0 0 -1
    outer loop
      vertex -22.309 4 0
      vertex -16.619 8 0
      vertex -7.381 4 0
    endloop
  endfacet
  facet normal 0 0 -1
    outer loop
      vertex -7.381 -4 0
      vertex -24.619 -8 0
      vertex -22.309 -4 0
    endloop
  endfacet
  facet normal -0.866016 0.500016 0
    outer loop
      vertex -29.238 0 0
      vertex -29.238 0 31
      vertex -24.619 8 0
    endloop
  endfacet
  facet normal -0.866016 0.500016 0
    outer loop
      vertex -24.619 8 0
      vertex -29.238 0 31
      vertex -24.619 8 31
    endloop
  endfacet
  facet normal 0 0 1
    outer loop
      vertex -24.619 0 31
      vertex -29.238 0 31
      vertex -24.619 -8 31
    endloop
  endfacet
  facet normal -0 0 1
    outer loop
      vertex -24.619 0 31
      vertex -24.619 8 31
      vertex -29.238 0 31
    endloop
  endfacet
  facet normal -0 0 1
    outer loop
      vertex -7.381 -8 31
      vertex -22.309 -4 31
      vertex -24.619 -8 31
    endloop
  endfacet
  facet normal -0 0 1
    outer loop
      vertex -22.309 -4 31
      vertex -24.619 0 31
      vertex -24.619 -8 31
    endloop
  endfacet
  facet normal 0 0 1
    outer loop
      vertex -22.309 4 31
      vertex -7.381 4 31
      vertex -24.619 8 31
    endloop
  endfacet
  facet normal 0 0 1
    outer loop
      vertex -24.619 0 31
      vertex -22.309 4 31
      vertex -24.619 8 31
    endloop
  endfacet
  facet normal -0 -0 1
    outer loop
      vertex -20 8 31
      vertex -24.619 8 31
      vertex -7.381 4 31
    endloop
  endfacet
  facet normal 0 0 1
    outer loop
      vertex -7.381 8 31
      vertex -20 8 31
      vertex -7.381 4 31
    endloop
  endfacet
  facet normal 0 0 1
    outer loop
      vertex -7.381 -4 31
      vertex -22.309 -4 31
      vertex -7.381 -8 31
    endloop
  endfacet
  facet normal 0 -1.28814e-17 0
    outer loop
      vertex -7.3812 -8 2.22045e-16
      vertex -24.619 -8 0
      vertex -7.381 -8 0
    endloop
  endfacet
  facet normal 0 -1 -0
    outer loop
      vertex -21.2376 -8 8
      vertex -16.6188 -8 16
      vertex -24.619 -8 31
    endloop
  endfacet
  facet normal 0 -2.4037e-17 0
    outer loop
      vertex -16.6188 -8 2.22045e-16
      vertex -24.619 -8 0
      vertex -7.3812 -8 2.22045e-16
    endloop
  endfacet
  facet normal 0 -1 0
    outer loop
      vertex -21.2376 -8 8
      vertex -24.619 -8 0
      vertex -16.6188 -8 2.22045e-16
    endloop
  endfacet
  facet normal 0 -1 0
    outer loop
      vertex -24.619 -8 31
      vertex -24.619 -8 0
      vertex -21.2376 -8 8
    endloop
  endfacet
  facet normal 0 -1 0
    outer loop
      vertex -7.381 -8 31
      vertex -24.619 -8 31
      vertex -7.3812 -8 16
    endloop
  endfacet
  facet normal 0 -1 0
    outer loop
      vertex -7.381 -8 31
      vertex -7.3812 -8 16
      vertex -7.381 -8 15.9997
    endloop
  endfacet
  facet normal 0 -1 0
    outer loop
      vertex -7.381 -8 0.000342946
      vertex -7.3812 -8 2.22045e-16
      vertex -7.381 -8 0
    endloop
  endfacet
  facet normal -0 -1 -0
    outer loop
      vertex -16.6188 -8 16
      vertex -7.3812 -8 16
      vertex -24.619 -8 31
    endloop
  endfacet
  facet normal 1 0 -0
    outer loop
      vertex -7.381 -8 0.000342946
      vertex -7.381 -8 0
      vertex -7.381 -4 0
    endloop
  endfacet
  facet normal 1 0 0
    outer loop
      vertex -7.381 -4 0.000342946
      vertex -7.381 -8 0.000342946
      vertex -7.381 -4 0
    endloop
  endfacet
  facet normal 0 1 0
    outer loop
      vertex -7.381 -4 31
      vertex -7.381 -4 15.9997
      vertex -22.309 -4 31
    endloop
  endfacet
  facet normal 0 1 0
    outer loop
      vertex -22.309 -4 31
      vertex -7.381 -4 15.9997
      vertex -2.7624 -4 8
    endloop
  endfacet
  facet normal 0 1 0
    outer loop
      vertex -7.3812 -4 8
      vertex -2.7624 -4 8
      vertex -7.381 -4 0.000342946
    endloop
  endfacet
  facet normal 0 1 -0
    outer loop
      vertex -14.3094 -4 4
      vertex -7.381 -4 0
      vertex -22.309 -4 0
    endloop
  endfacet
  facet normal 0 1 -0
    outer loop
      vertex -9.6906 -4 4
      vertex -7.381 -4 0
      vertex -14.3094 -4 4
    endloop
  endfacet
  facet normal 0 1 -0
    outer loop
      vertex -16.6188 -4 8
      vertex -14.3094 -4 4
      vertex -22.309 -4 0
    endloop
  endfacet
  facet normal 0 1 0
    outer loop
      vertex -9.6906 -4 12
      vertex -2.7624 -4 8
      vertex -7.3812 -4 8
    endloop
  endfacet
  facet normal 0 1 0
    outer loop
      vertex -14.3094 -4 12
      vertex -22.309 -4 31
      vertex -9.6906 -4 12
    endloop
  endfacet
  facet normal 0 1 0
    outer loop
      vertex -22.309 -4 31
      vertex -2.7624 -4 8
      vertex -9.6906 -4 12
    endloop
  endfacet
  facet normal 0 1 0
    outer loop
      vertex -16.6188 -4 8
      vertex -22.309 -4 31
      vertex -14.3094 -4 12
    endloop
  endfacet
  facet normal 0 1 -0
    outer loop
      vertex -22.309 -4 31
      vertex -16.6188 -4 8
      vertex -22.309 -4 0
    endloop
  endfacet
  facet normal 0 1.06099e-09 0
    outer loop
      vertex -7.3812 -4 8
      vertex -7.381 -4 0.000342946
      vertex -7.381 -4 0
    endloop
  endfacet
  facet normal 0 1 -0
    outer loop
      vertex -7.3812 -4 8
      vertex -7.381 -4 0
      vertex -9.6906 -4 4
    endloop
  endfacet
  facet normal 0.865969 0.500097 0
    outer loop
      vertex -24.619 0 31
      vertex -22.309 -4 31
      vertex -22.309 -4 0
    endloop
  endfacet
  facet normal 0.865969 0.500097 0
    outer loop
      vertex -24.619 0 0
      vertex -24.619 0 31
      vertex -22.309 -4 0
    endloop
  endfacet
  facet normal 0.865969 -0.500097 0
    outer loop
      vertex -22.309 4 0
      vertex -22.309 4 31
      vertex -24.619 0 31
    endloop
  endfacet
  facet normal 0.865969 -0.500097 0
    outer loop
      vertex -24.619 0 0
      vertex -22.309 4 0
      vertex -24.619 0 31
    endloop
  endfacet
  facet normal 0 -1 0
    outer loop
      vertex -7.381 4 15.9997
      vertex -7.381 4 0.000342946
      vertex -2.7624 4 8
    endloop
  endfacet
  facet normal -0 -1 0
    outer loop
      vertex -7.3812 4 8
      vertex -7.381 4 0.000342946
      vertex -7.381 4 15.9997
    endloop
  endfacet
  facet normal 0 -1 0
    outer loop
      vertex -22.309 4 31
      vertex -7.381 4 15.9997
      vertex -7.381 4 31
    endloop
  endfacet
  facet normal 0 -1.06099e-09 0
    outer loop
      vertex -7.3812 4 8
      vertex -7.381 4 0
      vertex -7.381 4 0.000342946
    endloop
  endfacet
  facet normal 0 -1 -0
    outer loop
      vertex -22.309 4 0
      vertex -16.6188 4 8
      vertex -22.309 4 31
    endloop
  endfacet
  facet normal 0 -1 -0
    outer loop
      vertex -16.6188 4 8
      vertex -14.3094 4 12
      vertex -22.309 4 31
    endloop
  endfacet
  facet normal 0 -1 0
    outer loop
      vertex -22.309 4 31
      vertex -9.6906 4 12
      vertex -7.381 4 15.9997
    endloop
  endfacet
  facet normal -0 -1 0
    outer loop
      vertex -9.6906 4 12
      vertex -7.3812 4 8
      vertex -7.381 4 15.9997
    endloop
  endfacet
  facet normal 0 -1 0
    outer loop
      vertex -22.309 4 0
      vertex -14.3094 4 4
      vertex -16.6188 4 8
    endloop
  endfacet
  facet normal -0 -1 0
    outer loop
      vertex -22.309 4 0
      vertex -7.381 4 0
      vertex -14.3094 4 4
    endloop
  endfacet
  facet normal 0 -1 0
    outer loop
      vertex -9.6906 4 4
      vertex -14.3094 4 4
      vertex -7.381 4 0
    endloop
  endfacet
  facet normal -0 -1 -0
    outer loop
      vertex -14.3094 4 12
      vertex -9.6906 4 12
      vertex -22.309 4 31
    endloop
  endfacet
  facet normal 0 -1 0
    outer loop
      vertex -7.3812 4 8
      vertex -9.6906 4 4
      vertex -7.381 4 0
    endloop
  endfacet
  facet normal 1 0 -0
    outer loop
      vertex -7.381 4 0.000342946
      vertex -7.381 4 0
      vertex -7.381 23 0
    endloop
  endfacet
  facet normal 1 0 0
    outer loop
      vertex -7.381 23 0.000342946
      vertex -7.381 4 0.000342946
      vertex -7.381 23 0
    endloop
  endfacet
  facet normal 0 7.69152e-16 0
    outer loop
      vertex -16.619 23 0
      vertex -16.6188 23 7.10543e-15
      vertex -7.381 23 0
    endloop
  endfacet
  facet normal 0 1 0
    outer loop
      vertex -16.619 23 0
      vertex -16.619 23 0.000342946
      vertex -16.6188 23 7.10543e-15
    endloop
  endfacet
  facet normal 0 7.69152e-16 0
    outer loop
      vertex -16.6188 23 7.10543e-15
      vertex -7.3812 23 7.10543e-15
      vertex -7.381 23 0
    endloop
  endfacet
  facet normal 0 1 0
    outer loop
      vertex -7.381 23 0.000342946
      vertex -7.381 23 0
      vertex -7.3812 23 7.10543e-15
    endloop
  endfacet
  facet normal -1 -0 -0
    outer loop
      vertex -16.619 8 0
      vertex -16.619 8 0.000342946
      vertex -16.619 23 0
    endloop
  endfacet
  facet normal -1 0 0
    outer loop
      vertex -16.619 23 0
      vertex -16.619 8 0.000342946
      vertex -16.619 23 0.000342946
    endloop
  endfacet
  facet normal 0 1 0
    outer loop
      vertex -21.2376 8 8
      vertex -24.619 8 31
      vertex -20 8 31
    endloop
  endfacet
  facet normal 0 1 0
    outer loop
      vertex -21.2376 8 8
      vertex -20 8 31
      vertex -16.619 8 15.9997
    endloop
  endfacet
  facet normal 0 1 0
    outer loop
      vertex -24.619 8 0
      vertex -24.619 8 31
      vertex -21.2376 8 8
    endloop
  endfacet
  facet normal 0 1 0
    outer loop
      vertex -24.619 8 0
      vertex -21.2376 8 8
      vertex -16.619 8 0
    endloop
  endfacet
  facet normal -0 1 0
    outer loop
      vertex -16.619 8 0.000342946
      vertex -16.619 8 0
      vertex -21.2376 8 8
    endloop
  endfacet
  facet normal 0 1 0
    outer loop
      vertex -16.619 8 31
      vertex -16.619 8 15.9997
      vertex -20 8 31
    endloop
  endfacet
  facet normal 1 0 -0
    outer loop
      vertex -7.381 4 31
      vertex -7.381 4 15.9997
      vertex -7.381 23 15.9997
    endloop
  endfacet
  facet normal 1 -0 -0
    outer loop
      vertex -7.381 8 31
      vertex -7.381 4 31
      vertex -7.381 23 16
    endloop
  endfacet
  facet normal 1 -0 0
    outer loop
      vertex -7.381 23 16
      vertex -7.381 4 31
      vertex -7.381 23 15.9997
    endloop
  endfacet
  facet normal 1 0 -0
    outer loop
      vertex -7.381 -8 31
      vertex -7.381 -8 15.9997
      vertex -7.381 -4 15.9997
    endloop
  endfacet
  facet normal 1 0 0
    outer loop
      vertex -7.381 -4 31
      vertex -7.381 -8 31
      vertex -7.381 -4 15.9997
    endloop
  endfacet
  facet normal 0.866025 -0 0.5
    outer loop
      vertex -7.3812 -8 16
      vertex -7.3812 -9 16
      vertex -2.7624 -9 8
    endloop
  endfacet
  facet normal 0.866025 7.80778e-13 0.5
    outer loop
      vertex -7.381 -8 15.9997
      vertex -7.3812 -8 16
      vertex -2.7624 -9 8
    endloop
  endfacet
  facet normal 0.866025 -0 0.5
    outer loop
      vertex -2.7624 -4 8
      vertex -7.381 -8 15.9997
      vertex -2.7624 -9 8
    endloop
  endfacet
  facet normal 0.866025 -0 0.5
    outer loop
      vertex -7.381 -4 15.9997
      vertex -7.381 -8 15.9997
      vertex -2.7624 -4 8
    endloop
  endfacet
  facet normal 0 -0 1
    outer loop
      vertex -16.6188 -8 16
      vertex -16.6188 -9 16
      vertex -7.3812 -9 16
    endloop
  endfacet
  facet normal 0 0 1
    outer loop
      vertex -7.3812 -8 16
      vertex -16.6188 -8 16
      vertex -7.3812 -9 16
    endloop
  endfacet
  facet normal -0.866025 0 0.5
    outer loop
      vertex -21.2376 -9 8
      vertex -16.6188 -9 16
      vertex -21.2376 -8 8
    endloop
  endfacet
  facet normal -0.866025 0 0.5
    outer loop
      vertex -21.2376 -8 8
      vertex -16.6188 -9 16
      vertex -16.6188 -8 16
    endloop
  endfacet
  facet normal -0.866025 -0 -0.5
    outer loop
      vertex -21.2376 -9 8
      vertex -21.2376 -8 8
      vertex -16.6188 -9 0
    endloop
  endfacet
  facet normal -0.866025 1.11022e-16 -0.5
    outer loop
      vertex -16.6188 -9 0
      vertex -21.2376 -8 8
      vertex -16.6188 -8 2.22045e-16
    endloop
  endfacet
  facet normal 0 2.22045e-16 -1
    outer loop
      vertex -16.6188 -9 0
      vertex -16.6188 -8 2.22045e-16
      vertex -7.3812 -9 0
    endloop
  endfacet
  facet normal 0 2.22045e-16 -1
    outer loop
      vertex -7.3812 -9 0
      vertex -16.6188 -8 2.22045e-16
      vertex -7.3812 -8 2.22045e-16
    endloop
  endfacet
  facet normal 0.866025 0 -0.5
    outer loop
      vertex -2.7624 -9 8
      vertex -7.3812 -9 0
      vertex -7.3812 -8 2.22045e-16
    endloop
  endfacet
  facet normal 0.866025 1.11022e-16 -0.5
    outer loop
      vertex -7.381 -4 0.000342946
      vertex -2.7624 -9 8
      vertex -7.381 -8 0.000342946
    endloop
  endfacet
  facet normal 0.866025 0 -0.5
    outer loop
      vertex -7.381 -8 0.000342946
      vertex -2.7624 -9 8
      vertex -7.3812 -8 2.22045e-16
    endloop
  endfacet
  facet normal 0.866025 0 -0.5
    outer loop
      vertex -2.7624 -4 8
      vertex -2.7624 -9 8
      vertex -7.381 -4 0.000342946
    endloop
  endfacet
  facet normal 0.866025 -8.88178e-17 0.5
    outer loop
      vertex -14.3094 -9 4
      vertex -14.3094 -4 4
      vertex -16.6188 -4 8
    endloop
  endfacet
  facet normal 0.866025 0 0.5
    outer loop
      vertex -16.6188 -9 8
      vertex -14.3094 -9 4
      vertex -16.6188 -4 8
    endloop
  endfacet
  facet normal 0 -1.77636e-16 1
    outer loop
      vertex -9.6906 -9 4
      vertex -9.6906 -4 4
      vertex -14.3094 -4 4
    endloop
  endfacet
  facet normal 0 -1.77636e-16 1
    outer loop
      vertex -14.3094 -9 4
      vertex -9.6906 -9 4
      vertex -14.3094 -4 4
    endloop
  endfacet
  facet normal 0.866025 0 -0.5
    outer loop
      vertex -16.6188 -4 8
      vertex -14.3094 -4 12
      vertex -14.3094 -9 12
    endloop
  endfacet
  facet normal 0.866025 0 -0.5
    outer loop
      vertex -16.6188 -9 8
      vertex -16.6188 -4 8
      vertex -14.3094 -9 12
    endloop
  endfacet
  facet normal 0 0 -1
    outer loop
      vertex -9.6906 -4 12
      vertex -9.6906 -9 12
      vertex -14.3094 -4 12
    endloop
  endfacet
  facet normal 0 0 -1
    outer loop
      vertex -14.3094 -4 12
      vertex -9.6906 -9 12
      vertex -14.3094 -9 12
    endloop
  endfacet
  facet normal -0.866025 0 -0.5
    outer loop
      vertex -7.3812 -4 8
      vertex -7.3812 -9 8
      vertex -9.6906 -4 12
    endloop
  endfacet
  facet normal -0.866025 0 -0.5
    outer loop
      vertex -9.6906 -4 12
      vertex -7.3812 -9 8
      vertex -9.6906 -9 12
    endloop
  endfacet
  facet normal -0.866025 0 0.5
    outer loop
      vertex -7.3812 -4 8
      vertex -9.6906 -4 4
      vertex -7.3812 -9 8
    endloop
  endfacet
  facet normal -0.866025 -6.00926e-17 0.5
    outer loop
      vertex -7.3812 -9 8
      vertex -9.6906 -4 4
      vertex -9.6906 -9 4
    endloop
  endfacet
  facet normal 0.866025 -3.34281e-17 0.5
    outer loop
      vertex -7.381 23 15.9997
      vertex -2.7624 4 8
      vertex -7.3812 24 16
    endloop
  endfacet
  facet normal 0.866025 2.79093e-16 0.5
    outer loop
      vertex -7.381 23 15.9997
      vertex -7.3812 24 16
      vertex -7.3812 23 16
    endloop
  endfacet
  facet normal 0.866025 -1.40239e-16 0.5
    outer loop
      vertex -7.381 4 15.9997
      vertex -2.7624 4 8
      vertex -7.381 23 15.9997
    endloop
  endfacet
  facet normal 0.866025 -1.33227e-16 0.5
    outer loop
      vertex -2.7624 4 8
      vertex -2.7624 24 8
      vertex -7.3812 24 16
    endloop
  endfacet
  facet normal 0.866025 1.11026e-16 -0.5
    outer loop
      vertex -7.381 23 0.000342946
      vertex -7.3812 23 7.10543e-15
      vertex -7.3812 24 7.32747e-15
    endloop
  endfacet
  facet normal 0.866025 1.33227e-16 -0.5
    outer loop
      vertex -2.7624 4 8
      vertex -7.381 23 0.000342946
      vertex -2.7624 24 8
    endloop
  endfacet
  facet normal 0.866025 0 -0.5
    outer loop
      vertex -2.7624 24 8
      vertex -7.381 23 0.000342946
      vertex -7.3812 24 7.32747e-15
    endloop
  endfacet
  facet normal 0.866025 1.11022e-16 -0.5
    outer loop
      vertex -7.381 4 0.000342946
      vertex -7.381 23 0.000342946
      vertex -2.7624 4 8
    endloop
  endfacet
  facet normal 0.866025 -1.11022e-16 0.5
    outer loop
      vertex -14.3094 4 4
      vertex -14.3094 24 4
      vertex -16.6188 24 8
    endloop
  endfacet
  facet normal 0.866025 -1.33227e-16 0.5
    outer loop
      vertex -16.6188 4 8
      vertex -14.3094 4 4
      vertex -16.6188 24 8
    endloop
  endfacet
  facet normal 0.866025 1.35208e-16 -0.5
    outer loop
      vertex -16.6188 24 8
      vertex -14.3094 24 12
      vertex -14.3094 4 12
    endloop
  endfacet
  facet normal 0.866025 1.33227e-16 -0.5
    outer loop
      vertex -16.6188 4 8
      vertex -16.6188 24 8
      vertex -14.3094 4 12
    endloop
  endfacet
  facet normal 0 -2.22045e-16 1
    outer loop
      vertex -9.6906 4 4
      vertex -9.6906 24 4
      vertex -14.3094 24 4
    endloop
  endfacet
  facet normal 0 -2.22045e-16 1
    outer loop
      vertex -14.3094 4 4
      vertex -9.6906 4 4
      vertex -14.3094 24 4
    endloop
  endfacet
  facet normal -0.866025 -1.33227e-16 0.5
    outer loop
      vertex -7.3812 24 8
      vertex -9.6906 24 4
      vertex -7.3812 4 8
    endloop
  endfacet
  facet normal -0.866025 -1.20185e-16 0.5
    outer loop
      vertex -7.3812 4 8
      vertex -9.6906 24 4
      vertex -9.6906 4 4
    endloop
  endfacet
  facet normal -0.866025 1.33227e-16 -0.5
    outer loop
      vertex -7.3812 24 8
      vertex -7.3812 4 8
      vertex -9.6906 24 12
    endloop
  endfacet
  facet normal -0.866025 1.33227e-16 -0.5
    outer loop
      vertex -9.6906 24 12
      vertex -7.3812 4 8
      vertex -9.6906 4 12
    endloop
  endfacet
  facet normal 0 2.66454e-16 -1
    outer loop
      vertex -9.6906 24 12
      vertex -9.6906 4 12
      vertex -14.3094 24 12
    endloop
  endfacet
  facet normal 0 2.66454e-16 -1
    outer loop
      vertex -14.3094 24 12
      vertex -9.6906 4 12
      vertex -14.3094 4 12
    endloop
  endfacet
  facet normal 0 2.22045e-16 -1
    outer loop
      vertex -16.6188 23 7.10543e-15
      vertex -16.6188 24 7.32747e-15
      vertex -7.3812 23 7.10543e-15
    endloop
  endfacet
  facet normal 0 2.22045e-16 -1
    outer loop
      vertex -7.3812 23 7.10543e-15
      vertex -16.6188 24 7.32747e-15
      vertex -7.3812 24 7.32747e-15
    endloop
  endfacet
  facet normal -0.866025 1.11022e-16 -0.5
    outer loop
      vertex -21.2376 8 8
      vertex -21.2376 24 8
      vertex -16.619 8 0.000342946
    endloop
  endfacet
  facet normal -0.866025 4.95627e-16 -0.5
    outer loop
      vertex -16.619 23 0.000342946
      vertex -21.2376 24 8
      vertex -16.6188 24 7.32747e-15
    endloop
  endfacet
  facet normal -0.866025 1.11022e-16 -0.5
    outer loop
      vertex -16.619 8 0.000342946
      vertex -21.2376 24 8
      vertex -16.619 23 0.000342946
    endloop
  endfacet
  facet normal -0.866025 1.10993e-16 -0.5
    outer loop
      vertex -16.619 23 0.000342946
      vertex -16.6188 24 7.32747e-15
      vertex -16.6188 23 7.10543e-15
    endloop
  endfacet
  facet normal -0.866025 -1.11022e-16 0.5
    outer loop
      vertex -21.2376 8 8
      vertex -16.619 8 15.9997
      vertex -21.2376 24 8
    endloop
  endfacet
  facet normal -0.866025 -1.53844e-16 0.5
    outer loop
      vertex -21.2376 24 8
      vertex -16.619 8 15.9997
      vertex -16.619 23 15.9997
    endloop
  endfacet
  facet normal -0.866025 1.79639e-11 0.5
    outer loop
      vertex -21.2376 24 8
      vertex -16.619 23 15.9997
      vertex -16.6188 23 16
    endloop
  endfacet
  facet normal -0.866025 0 0.5
    outer loop
      vertex -21.2376 24 8
      vertex -16.6188 23 16
      vertex -16.6188 24 16
    endloop
  endfacet
  facet normal -1 0 -0
    outer loop
      vertex -16.619 8 15.9997
      vertex -16.619 8 31
      vertex -16.619 23 15.9997
    endloop
  endfacet
  facet normal -1 0 0
    outer loop
      vertex -16.619 23 15.9997
      vertex -16.619 8 31
      vertex -16.619 23 16
    endloop
  endfacet
  facet normal -0 0.707107 0.707107
    outer loop
      vertex -16.6188 23 16
      vertex -16.619 23 16
      vertex -7.381 8 31
    endloop
  endfacet
  facet normal 0 0.707107 0.707107
    outer loop
      vertex -7.381 8 31
      vertex -7.381 23 16
      vertex -7.3812 23 16
    endloop
  endfacet
  facet normal -1.35974e-16 0.707107 0.707107
    outer loop
      vertex -16.6188 23 16
      vertex -7.381 8 31
      vertex -7.3812 23 16
    endloop
  endfacet
  facet normal -0 1.58112e-08 1.58112e-08
    outer loop
      vertex -16.619 8 31
      vertex -20 8 31
      vertex -7.381 8 31
    endloop
  endfacet
  facet normal 0 0.707107 0.707107
    outer loop
      vertex -16.619 23 16
      vertex -16.619 8 31
      vertex -7.381 8 31
    endloop
  endfacet
  facet normal 0 1 0
    outer loop
      vertex -7.381 23 15.9997
      vertex -7.3812 23 16
      vertex -7.381 23 16
    endloop
  endfacet
  facet normal 0 -1 -2.22045e-16
    outer loop
      vertex -16.6188 -9 8
      vertex -21.2376 -9 8
      vertex -16.6188 -9 0
    endloop
  endfacet
  facet normal 0 -1 -2.22045e-16
    outer loop
      vertex -16.6188 -9 8
      vertex -16.6188 -9 16
      vertex -21.2376 -9 8
    endloop
  endfacet
  facet normal 3.84593e-16 -1 -2.22045e-16
    outer loop
      vertex -14.3094 -9 4
      vertex -16.6188 -9 8
      vertex -16.6188 -9 0
    endloop
  endfacet
  facet normal -0 -1 -4.44089e-16
    outer loop
      vertex -14.3094 -9 12
      vertex -9.6906 -9 12
      vertex -16.6188 -9 16
    endloop
  endfacet
  facet normal 0 -1 0
    outer loop
      vertex -9.6906 -9 12
      vertex -7.3812 -9 8
      vertex -2.7624 -9 8
    endloop
  endfacet
  facet normal -1.92296e-16 -1 -3.33067e-16
    outer loop
      vertex -7.3812 -9 16
      vertex -9.6906 -9 12
      vertex -2.7624 -9 8
    endloop
  endfacet
  facet normal 0 -1 -4.44089e-16
    outer loop
      vertex -7.3812 -9 16
      vertex -16.6188 -9 16
      vertex -9.6906 -9 12
    endloop
  endfacet
  facet normal 0 -1 -2.22045e-16
    outer loop
      vertex -2.7624 -9 8
      vertex -7.3812 -9 8
      vertex -7.3812 -9 0
    endloop
  endfacet
  facet normal -3.84593e-16 -1 -2.22045e-16
    outer loop
      vertex -7.3812 -9 8
      vertex -9.6906 -9 4
      vertex -7.3812 -9 0
    endloop
  endfacet
  facet normal 0 -1 0
    outer loop
      vertex -7.3812 -9 0
      vertex -14.3094 -9 4
      vertex -16.6188 -9 0
    endloop
  endfacet
  facet normal 3.84593e-16 -1 -2.22045e-16
    outer loop
      vertex -16.6188 -9 8
      vertex -14.3094 -9 12
      vertex -16.6188 -9 16
    endloop
  endfacet
  facet normal 0 -1 0
    outer loop
      vertex -9.6906 -9 4
      vertex -14.3094 -9 4
      vertex -7.3812 -9 0
    endloop
  endfacet
  facet normal 7.69185e-16 1 4.44089e-16
    outer loop
      vertex -21.2376 24 8
      vertex -16.6188 24 8
      vertex -16.6188 24 7.32747e-15
    endloop
  endfacet
  facet normal 0 1 0
    outer loop
      vertex -14.3094 24 12
      vertex -16.6188 24 16
      vertex -7.3812 24 16
    endloop
  endfacet
  facet normal -7.69185e-16 1 0
    outer loop
      vertex -7.3812 24 8
      vertex -7.3812 24 16
      vertex -2.7624 24 8
    endloop
  endfacet
  facet normal 0 1 0
    outer loop
      vertex -16.6188 24 7.32747e-15
      vertex -2.7624 24 8
      vertex -7.3812 24 7.32747e-15
    endloop
  endfacet
  facet normal 0 1 0
    outer loop
      vertex -16.6188 24 8
      vertex -16.6188 24 16
      vertex -14.3094 24 12
    endloop
  endfacet
  facet normal -0 1 0
    outer loop
      vertex -9.6906 24 12
      vertex -14.3094 24 12
      vertex -7.3812 24 16
    endloop
  endfacet
  facet normal 7.69185e-16 1 0
    outer loop
      vertex -21.2376 24 8
      vertex -16.6188 24 16
      vertex -16.6188 24 8
    endloop
  endfacet
  facet normal 0 1 0
    outer loop
      vertex -9.6906 24 4
      vertex -16.6188 24 7.32747e-15
      vertex -14.3094 24 4
    endloop
  endfacet
  facet normal 0 1 0
    outer loop
      vertex -9.6906 24 12
      vertex -7.3812 24 16
      vertex -7.3812 24 8
    endloop
  endfacet
  facet normal 0 -5.55112e-17 0
    outer loop
      vertex -16.6188 24 7.32747e-15
      vertex -9.6906 24 4
      vertex -2.7624 24 8
    endloop
  endfacet
  facet normal -7.69185e-16 1 1.33227e-15
    outer loop
      vertex -9.6906 24 4
      vertex -7.3812 24 8
      vertex -2.7624 24 8
    endloop
  endfacet
  facet normal -7.69185e-16 1 4.44089e-16
    outer loop
      vertex -14.3094 24 4
      vertex -16.6188 24 7.32747e-15
      vertex -16.6188 24 8
    endloop
  endfacet
  facet normal 0 -0 1
    outer loop
      vertex -16.6188 24 16
      vertex -16.6188 23 16
      vertex -7.3812 23 16
    endloop
  endfacet
  facet normal 0 0 1
    outer loop
      vertex -7.3812 24 16
      vertex -16.6188 24 16
      vertex -7.3812 23 16
    endloop
  endfacet
  facet normal 0 1 0
    outer loop
      vertex -16.6188 23 16
      vertex -16.619 23 15.9997
      vertex -16.619 23 16
    endloop
  endfacet
  facet normal -0 -1 -2.22045e-16
    outer loop
      vertex 7.3812 -9 0
      vertex 16.6188 -9 0
      vertex 21.2376 -9 8
    endloop
  endfacet
  facet normal -1.4803e-16 1.11022e-16 2.56395e-16
    outer loop
      vertex 14.3094 -9 4
      vertex 7.3812 -9 0
      vertex 21.2376 -9 8
    endloop
  endfacet
  facet normal -0 -1 -4.44089e-16
    outer loop
      vertex 7.3812 -9 16
      vertex 9.6906 -9 12
      vertex 16.6188 -9 16
    endloop
  endfacet
  facet normal 3.84593e-16 -1 -2.22045e-16
    outer loop
      vertex 7.3812 -9 16
      vertex 7.3812 -9 8
      vertex 9.6906 -9 12
    endloop
  endfacet
  facet normal -0 -1 -4.44089e-16
    outer loop
      vertex 9.6906 -9 12
      vertex 14.3094 -9 12
      vertex 16.6188 -9 16
    endloop
  endfacet
  facet normal 0 -1 -2.22045e-16
    outer loop
      vertex 16.6188 -9 16
      vertex 16.6188 -9 8
      vertex 21.2376 -9 8
    endloop
  endfacet
  facet normal -0 -1 -4.44089e-16
    outer loop
      vertex 16.6188 -9 8
      vertex 14.3094 -9 4
      vertex 21.2376 -9 8
    endloop
  endfacet
  facet normal -0 -1 -2.22045e-16
    outer loop
      vertex 2.7624 -9 8
      vertex 7.3812 -9 8
      vertex 7.3812 -9 16
    endloop
  endfacet
  facet normal -0 -1 -2.22045e-16
    outer loop
      vertex 2.7624 -9 8
      vertex 7.3812 -9 0
      vertex 7.3812 -9 8
    endloop
  endfacet
  facet normal 3.84593e-16 -1 -2.22045e-16
    outer loop
      vertex 9.6906 -9 4
      vertex 7.3812 -9 8
      vertex 7.3812 -9 0
    endloop
  endfacet
  facet normal -3.84593e-16 -1 -2.22045e-16
    outer loop
      vertex 14.3094 -9 12
      vertex 16.6188 -9 8
      vertex 16.6188 -9 16
    endloop
  endfacet
  facet normal 0 -1 0
    outer loop
      vertex 14.3094 -9 4
      vertex 9.6906 -9 4
      vertex 7.3812 -9 0
    endloop
  endfacet
  facet normal -0.866025 1.11022e-16 -0.5
    outer loop
      vertex 7.381 -4 0.000342946
      vertex 7.381 -8 0.000342946
      vertex 2.7624 -4 8
    endloop
  endfacet
  facet normal -0.866025 1.11022e-16 -0.5
    outer loop
      vertex 7.3812 -9 0
      vertex 7.381 -8 0.000342946
      vertex 7.3812 -8 2.22045e-16
    endloop
  endfacet
  facet normal -0.866025 0 -0.5
    outer loop
      vertex 2.7624 -4 8
      vertex 7.381 -8 0.000342946
      vertex 7.3812 -9 0
    endloop
  endfacet
  facet normal -0.866025 0 -0.5
    outer loop
      vertex 2.7624 -4 8
      vertex 7.3812 -9 0
      vertex 2.7624 -9 8
    endloop
  endfacet
  facet normal -0.866025 0 0.5
    outer loop
      vertex 7.3812 -8 16
      vertex 7.381 -8 15.9997
      vertex 7.3812 -9 16
    endloop
  endfacet
  facet normal -0.866025 0 0.5
    outer loop
      vertex 2.7624 -4 8
      vertex 7.381 -8 15.9997
      vertex 7.381 -4 15.9997
    endloop
  endfacet
  facet normal -0.866025 3.34806e-17 0.5
    outer loop
      vertex 7.3812 -9 16
      vertex 7.381 -8 15.9997
      vertex 2.7624 -4 8
    endloop
  endfacet
  facet normal -0.866025 0 0.5
    outer loop
      vertex 7.3812 -9 16
      vertex 2.7624 -4 8
      vertex 2.7624 -9 8
    endloop
  endfacet
  facet normal 0 2.22045e-16 -1
    outer loop
      vertex 16.6188 -8 2.22045e-16
      vertex 16.6188 -9 0
      vertex 7.3812 -8 2.22045e-16
    endloop
  endfacet
  facet normal 0 2.22045e-16 -1
    outer loop
      vertex 7.3812 -8 2.22045e-16
      vertex 16.6188 -9 0
      vertex 7.3812 -9 0
    endloop
  endfacet
  facet normal 0 0 1
    outer loop
      vertex 16.6188 -9 16
      vertex 16.6188 -8 16
      vertex 7.3812 -8 16
    endloop
  endfacet
  facet normal 0 0 1
    outer loop
      vertex 7.3812 -9 16
      vertex 16.6188 -9 16
      vertex 7.3812 -8 16
    endloop
  endfacet
  facet normal 0.866025 0 0.5
    outer loop
      vertex 21.2376 -9 8
      vertex 21.2376 -8 8
      vertex 16.6188 -8 16
    endloop
  endfacet
  facet normal 0.866025 0 0.5
    outer loop
      vertex 16.6188 -9 16
      vertex 21.2376 -9 8
      vertex 16.6188 -8 16
    endloop
  endfacet
  facet normal 0.866025 0 -0.5
    outer loop
      vertex 16.6188 -8 2.22045e-16
      vertex 21.2376 -8 8
      vertex 21.2376 -9 8
    endloop
  endfacet
  facet normal 0.866025 1.11022e-16 -0.5
    outer loop
      vertex 16.6188 -9 0
      vertex 16.6188 -8 2.22045e-16
      vertex 21.2376 -9 8
    endloop
  endfacet
  facet normal -0 -0 -1
    outer loop
      vertex 9.6906 -9 12
      vertex 9.6906 -4 12
      vertex 14.3094 -9 12
    endloop
  endfacet
  facet normal 0 0 -1
    outer loop
      vertex 14.3094 -9 12
      vertex 9.6906 -4 12
      vertex 14.3094 -4 12
    endloop
  endfacet
  facet normal 0.866025 0 -0.5
    outer loop
      vertex 9.6906 -9 12
      vertex 7.3812 -9 8
      vertex 7.3812 -4 8
    endloop
  endfacet
  facet normal 0.866025 0 -0.5
    outer loop
      vertex 9.6906 -4 12
      vertex 9.6906 -9 12
      vertex 7.3812 -4 8
    endloop
  endfacet
  facet normal 0.866025 -0 0.5
    outer loop
      vertex 7.3812 -4 8
      vertex 7.3812 -9 8
      vertex 9.6906 -9 4
    endloop
  endfacet
  facet normal 0.866025 -8.88178e-17 0.5
    outer loop
      vertex 9.6906 -4 4
      vertex 7.3812 -4 8
      vertex 9.6906 -9 4
    endloop
  endfacet
  facet normal 0 -1.77636e-16 1
    outer loop
      vertex 9.6906 -4 4
      vertex 9.6906 -9 4
      vertex 14.3094 -9 4
    endloop
  endfacet
  facet normal 0 -1.77636e-16 1
    outer loop
      vertex 14.3094 -4 4
      vertex 9.6906 -4 4
      vertex 14.3094 -9 4
    endloop
  endfacet
  facet normal -0.866025 -8.88178e-17 0.5
    outer loop
      vertex 14.3094 -9 4
      vertex 16.6188 -9 8
      vertex 14.3094 -4 4
    endloop
  endfacet
  facet normal -0.866025 0 0.5
    outer loop
      vertex 14.3094 -4 4
      vertex 16.6188 -9 8
      vertex 16.6188 -4 8
    endloop
  endfacet
  facet normal -0.866025 -0 -0.5
    outer loop
      vertex 14.3094 -9 12
      vertex 14.3094 -4 12
      vertex 16.6188 -9 8
    endloop
  endfacet
  facet normal -0.866025 -0 -0.5
    outer loop
      vertex 16.6188 -9 8
      vertex 14.3094 -4 12
      vertex 16.6188 -4 8
    endloop
  endfacet
  facet normal 0 1 0
    outer loop
      vertex 2.7624 -4 8
      vertex 7.381 -4 15.9997
      vertex 7.381 -4 0.000342946
    endloop
  endfacet
  facet normal 0 1 0
    outer loop
      vertex 22.309 -4 31
      vertex 7.381 -4 15.9997
      vertex 7.381 -4 31
    endloop
  endfacet
  facet normal 0 1 0
    outer loop
      vertex 9.6906 -4 12
      vertex 7.381 -4 15.9997
      vertex 22.309 -4 31
    endloop
  endfacet
  facet normal 0 1 0
    outer loop
      vertex 16.6188 -4 8
      vertex 22.309 -4 31
      vertex 22.309 -4 0
    endloop
  endfacet
  facet normal 0 1 -0
    outer loop
      vertex 7.381 -4 0.000342946
      vertex 22.309 -4 0
      vertex 7.381 -4 0
    endloop
  endfacet
  facet normal 0 1 0
    outer loop
      vertex 7.381 -4 0.000342946
      vertex 7.381 -4 15.9997
      vertex 7.3812 -4 8
    endloop
  endfacet
  facet normal 0 1 0
    outer loop
      vertex 14.3094 -4 12
      vertex 22.309 -4 31
      vertex 16.6188 -4 8
    endloop
  endfacet
  facet normal 0 1 0
    outer loop
      vertex 7.381 -4 0.000342946
      vertex 9.6906 -4 4
      vertex 22.309 -4 0
    endloop
  endfacet
  facet normal 0 1 0
    outer loop
      vertex 9.6906 -4 12
      vertex 22.309 -4 31
      vertex 14.3094 -4 12
    endloop
  endfacet
  facet normal 0 1 0
    outer loop
      vertex 9.6906 -4 4
      vertex 14.3094 -4 4
      vertex 22.309 -4 0
    endloop
  endfacet
  facet normal 0 1 0
    outer loop
      vertex 14.3094 -4 4
      vertex 16.6188 -4 8
      vertex 22.309 -4 0
    endloop
  endfacet
  facet normal 0 1 0
    outer loop
      vertex 7.3812 -4 8
      vertex 7.381 -4 15.9997
      vertex 9.6906 -4 12
    endloop
  endfacet
  facet normal -0 1 0
    outer loop
      vertex 9.6906 -4 4
      vertex 7.381 -4 0.000342946
      vertex 7.3812 -4 8
    endloop
  endfacet
  facet normal 0 -1 -0
    outer loop
      vertex 16.6188 -8 16
      vertex 24.619 -8 31
      vertex 7.381 -8 31
    endloop
  endfacet
  facet normal 0 -1 -0
    outer loop
      vertex 7.381 -8 15.9997
      vertex 7.3812 -8 16
      vertex 7.381 -8 31
    endloop
  endfacet
  facet normal 0 -1 -0
    outer loop
      vertex 21.2376 -8 8
      vertex 24.619 -8 31
      vertex 16.6188 -8 16
    endloop
  endfacet
  facet normal 0 -1 0
    outer loop
      vertex 24.619 -8 0
      vertex 24.619 -8 31
      vertex 21.2376 -8 8
    endloop
  endfacet
  facet normal 0 -6.90297e-18 0
    outer loop
      vertex 7.3812 -8 2.22045e-16
      vertex 24.619 -8 0
      vertex 16.6188 -8 2.22045e-16
    endloop
  endfacet
  facet normal -0 -1.28811e-17 0
    outer loop
      vertex 7.381 -8 0
      vertex 24.619 -8 0
      vertex 7.3812 -8 2.22045e-16
    endloop
  endfacet
  facet normal 0 -1 -0
    outer loop
      vertex 7.381 -8 0
      vertex 7.3812 -8 2.22045e-16
      vertex 7.381 -8 0.000342946
    endloop
  endfacet
  facet normal -0 -1 -0
    outer loop
      vertex 7.3812 -8 16
      vertex 16.6188 -8 16
      vertex 7.381 -8 31
    endloop
  endfacet
  facet normal 0 -1 0
    outer loop
      vertex 21.2376 -8 8
      vertex 16.6188 -8 2.22045e-16
      vertex 24.619 -8 0
    endloop
  endfacet
  facet normal -1 0 0
    outer loop
      vertex 7.381 -4 0.000342946
      vertex 7.381 -4 0
      vertex 7.381 -8 0.000342946
    endloop
  endfacet
  facet normal -1 0 0
    outer loop
      vertex 7.381 -8 0.000342946
      vertex 7.381 -4 0
      vertex 7.381 -8 0
    endloop
  endfacet
  facet normal -1 0 0
    outer loop
      vertex 7.381 -4 31
      vertex 7.381 -4 15.9997
      vertex 7.381 -8 31
    endloop
  endfacet
  facet normal -1 0 0
    outer loop
      vertex 7.381 -8 31
      vertex 7.381 -4 15.9997
      vertex 7.381 -8 15.9997
    endloop
  endfacet
  facet normal 0 0 -1
    outer loop
      vertex 16.619 8 0
      vertex 22.309 4 0
      vertex 7.381 4 0
    endloop
  endfacet
  facet normal 0 0 -1
    outer loop
      vertex 24.619 8 0
      vertex 22.309 4 0
      vertex 16.619 8 0
    endloop
  endfacet
  facet normal 0 0 -1
    outer loop
      vertex 24.619 8 0
      vertex 24.619 0 0
      vertex 22.309 4 0
    endloop
  endfacet
  facet normal 0 0 -1
    outer loop
      vertex 7.381 23 0
      vertex 16.619 8 0
      vertex 7.381 4 0
    endloop
  endfacet
  facet normal 0 0 -1
    outer loop
      vertex 22.309 -4 0
      vertex 24.619 0 0
      vertex 29.238 0 0
    endloop
  endfacet
  facet normal -0 -0 -1
    outer loop
      vertex 24.619 0 0
      vertex 24.619 8 0
      vertex 29.238 0 0
    endloop
  endfacet
  facet normal -0 0 -1
    outer loop
      vertex 22.309 -4 0
      vertex 29.238 0 0
      vertex 24.619 -8 0
    endloop
  endfacet
  facet normal 0 0 -1
    outer loop
      vertex 22.309 -4 0
      vertex 24.619 -8 0
      vertex 7.381 -4 0
    endloop
  endfacet
  facet normal 0 0 -1
    outer loop
      vertex 24.619 -8 0
      vertex 7.381 -8 0
      vertex 7.381 -4 0
    endloop
  endfacet
  facet normal 0 0 -1
    outer loop
      vertex 16.619 8 0
      vertex 7.381 23 0
      vertex 16.619 23 0
    endloop
  endfacet
  facet normal -0.865969 0.500097 0
    outer loop
      vertex 22.309 -4 0
      vertex 22.309 -4 31
      vertex 24.619 0 0
    endloop
  endfacet
  facet normal -0.865969 0.500097 0
    outer loop
      vertex 24.619 0 0
      vertex 22.309 -4 31
      vertex 24.619 0 31
    endloop
  endfacet
  facet normal 0 0 1
    outer loop
      vertex 24.619 0 31
      vertex 29.238 0 31
      vertex 24.619 8 31
    endloop
  endfacet
  facet normal 0 0 1
    outer loop
      vertex 24.619 0 31
      vertex 22.309 -4 31
      vertex 24.619 -8 31
    endloop
  endfacet
  facet normal 0 -0 1
    outer loop
      vertex 24.619 0 31
      vertex 24.619 -8 31
      vertex 29.238 0 31
    endloop
  endfacet
  facet normal 0 0 1
    outer loop
      vertex 20 8 31
      vertex 22.309 4 31
      vertex 24.619 8 31
    endloop
  endfacet
  facet normal 0 0 1
    outer loop
      vertex 22.309 4 31
      vertex 24.619 0 31
      vertex 24.619 8 31
    endloop
  endfacet
  facet normal 0 -0 1
    outer loop
      vertex 22.309 -4 31
      vertex 7.381 -4 31
      vertex 24.619 -8 31
    endloop
  endfacet
  facet normal 0 0 1
    outer loop
      vertex 7.381 -8 31
      vertex 24.619 -8 31
      vertex 7.381 -4 31
    endloop
  endfacet
  facet normal 0 0 1
    outer loop
      vertex 7.381 4 31
      vertex 20 8 31
      vertex 7.381 8 31
    endloop
  endfacet
  facet normal 0 0 1
    outer loop
      vertex 7.381 4 31
      vertex 22.309 4 31
      vertex 20 8 31
    endloop
  endfacet
  facet normal 0.866016 -0.500016 0
    outer loop
      vertex 29.238 0 0
      vertex 29.238 0 31
      vertex 24.619 -8 31
    endloop
  endfacet
  facet normal 0.866016 -0.500016 0
    outer loop
      vertex 24.619 -8 0
      vertex 29.238 0 0
      vertex 24.619 -8 31
    endloop
  endfacet
  facet normal 0.866016 0.500016 0
    outer loop
      vertex 24.619 8 31
      vertex 29.238 0 31
      vertex 29.238 0 0
    endloop
  endfacet
  facet normal 0.866016 0.500016 0
    outer loop
      vertex 24.619 8 0
      vertex 24.619 8 31
      vertex 29.238 0 0
    endloop
  endfacet
  facet normal 0 1 0
    outer loop
      vertex 21.2376 8 8
      vertex 16.619 8 15.9997
      vertex 16.619 8 31
    endloop
  endfacet
  facet normal 0 1 0
    outer loop
      vertex 21.2376 8 8
      vertex 16.619 8 31
      vertex 20 8 31
    endloop
  endfacet
  facet normal 0 1 0
    outer loop
      vertex 21.2376 8 8
      vertex 20 8 31
      vertex 24.619 8 31
    endloop
  endfacet
  facet normal 0 1 0
    outer loop
      vertex 21.2376 8 8
      vertex 24.619 8 31
      vertex 24.619 8 0
    endloop
  endfacet
  facet normal 0 1 -0
    outer loop
      vertex 21.2376 8 8
      vertex 24.619 8 0
      vertex 16.619 8 0.000342946
    endloop
  endfacet
  facet normal -0 1 0
    outer loop
      vertex 24.619 8 0
      vertex 16.619 8 0
      vertex 16.619 8 0.000342946
    endloop
  endfacet
  facet normal 1 0 0
    outer loop
      vertex 16.619 23 0
      vertex 16.619 23 0.000342946
      vertex 16.619 8 0.000342946
    endloop
  endfacet
  facet normal 1 0 0
    outer loop
      vertex 16.619 8 0
      vertex 16.619 23 0
      vertex 16.619 8 0.000342946
    endloop
  endfacet
  facet normal 0 1 0
    outer loop
      vertex 16.619 23 0
      vertex 16.6188 23 7.10543e-15
      vertex 16.619 23 0.000342946
    endloop
  endfacet
  facet normal 0 7.69152e-16 0
    outer loop
      vertex 7.3812 23 7.10543e-15
      vertex 16.6188 23 7.10543e-15
      vertex 16.619 23 0
    endloop
  endfacet
  facet normal 0 7.69185e-16 -0
    outer loop
      vertex 7.3812 23 7.10543e-15
      vertex 16.619 23 0
      vertex 7.381 23 0
    endloop
  endfacet
  facet normal -0 1 0
    outer loop
      vertex 7.3812 23 7.10543e-15
      vertex 7.381 23 0
      vertex 7.381 23 0.000342946
    endloop
  endfacet
  facet normal -1 0 0
    outer loop
      vertex 7.381 23 0.000342946
      vertex 7.381 23 0
      vertex 7.381 4 0.000342946
    endloop
  endfacet
  facet normal -1 0 0
    outer loop
      vertex 7.381 4 0.000342946
      vertex 7.381 23 0
      vertex 7.381 4 0
    endloop
  endfacet
  facet normal 0 -1 0
    outer loop
      vertex 7.381 4 15.9997
      vertex 2.7624 4 8
      vertex 7.381 4 0.000342946
    endloop
  endfacet
  facet normal 0 -1 0
    outer loop
      vertex 7.3812 4 8
      vertex 7.381 4 15.9997
      vertex 7.381 4 0.000342946
    endloop
  endfacet
  facet normal -0 -1 -0
    outer loop
      vertex 7.381 4 0
      vertex 22.309 4 0
      vertex 7.381 4 0.000342946
    endloop
  endfacet
  facet normal 0 -1 -0
    outer loop
      vertex 14.3094 4 12
      vertex 22.309 4 31
      vertex 7.381 4 15.9997
    endloop
  endfacet
  facet normal 0 -1 0
    outer loop
      vertex 22.309 4 31
      vertex 7.381 4 31
      vertex 7.381 4 15.9997
    endloop
  endfacet
  facet normal 0 -1 0
    outer loop
      vertex 22.309 4 0
      vertex 9.6906 4 4
      vertex 7.381 4 0.000342946
    endloop
  endfacet
  facet normal 0 -1 0
    outer loop
      vertex 9.6906 4 4
      vertex 7.3812 4 8
      vertex 7.381 4 0.000342946
    endloop
  endfacet
  facet normal 0 -1 0
    outer loop
      vertex 22.309 4 0
      vertex 22.309 4 31
      vertex 14.3094 4 12
    endloop
  endfacet
  facet normal 0 -1 0
    outer loop
      vertex 16.6188 4 8
      vertex 14.3094 4 4
      vertex 22.309 4 0
    endloop
  endfacet
  facet normal 0 -1 0
    outer loop
      vertex 22.309 4 0
      vertex 14.3094 4 12
      vertex 16.6188 4 8
    endloop
  endfacet
  facet normal 0 -1 0
    outer loop
      vertex 22.309 4 0
      vertex 14.3094 4 4
      vertex 9.6906 4 4
    endloop
  endfacet
  facet normal 0 -1 -0
    outer loop
      vertex 7.3812 4 8
      vertex 9.6906 4 12
      vertex 7.381 4 15.9997
    endloop
  endfacet
  facet normal -0 -1 -0
    outer loop
      vertex 9.6906 4 12
      vertex 14.3094 4 12
      vertex 7.381 4 15.9997
    endloop
  endfacet
  facet normal -0.865969 -0.500097 -0
    outer loop
      vertex 22.309 4 0
      vertex 24.619 0 0
      vertex 22.309 4 31
    endloop
  endfacet
  facet normal -0.865969 -0.500097 0
    outer loop
      vertex 22.309 4 31
      vertex 24.619 0 0
      vertex 24.619 0 31
    endloop
  endfacet
  facet normal -1 0 0
    outer loop
      vertex 7.381 4 31
      vertex 7.381 8 31
      vertex 7.381 23 16
    endloop
  endfacet
  facet normal -1 0 0
    outer loop
      vertex 7.381 4 31
      vertex 7.381 23 16
      vertex 7.381 23 15.9997
    endloop
  endfacet
  facet normal -1 0 0
    outer loop
      vertex 7.381 4 31
      vertex 7.381 23 15.9997
      vertex 7.381 4 15.9997
    endloop
  endfacet
  facet normal 0.866025 9.61481e-17 -0.5
    outer loop
      vertex 16.6188 24 7.32747e-15
      vertex 21.2376 24 8
      vertex 21.2376 8 8
    endloop
  endfacet
  facet normal 0.866025 4.95921e-16 -0.5
    outer loop
      vertex 16.619 23 0.000342946
      vertex 16.6188 24 7.32747e-15
      vertex 21.2376 8 8
    endloop
  endfacet
  facet normal 0.866025 1.11022e-16 -0.5
    outer loop
      vertex 16.619 8 0.000342946
      vertex 16.619 23 0.000342946
      vertex 21.2376 8 8
    endloop
  endfacet
  facet normal 0.866025 1.10993e-16 -0.5
    outer loop
      vertex 16.619 23 0.000342946
      vertex 16.6188 23 7.10543e-15
      vertex 16.6188 24 7.32747e-15
    endloop
  endfacet
  facet normal 0 5.90125e-08 5.90125e-08
    outer loop
      vertex 16.619 8 31
      vertex 7.381 8 31
      vertex 20 8 31
    endloop
  endfacet
  facet normal 0 0.707107 0.707107
    outer loop
      vertex 16.619 8 31
      vertex 7.3812 23 16
      vertex 7.381 23 16
    endloop
  endfacet
  facet normal 0 0.707107 0.707107
    outer loop
      vertex 7.381 23 16
      vertex 7.381 8 31
      vertex 16.619 8 31
    endloop
  endfacet
  facet normal 0 0.707107 0.707107
    outer loop
      vertex 16.619 8 31
      vertex 16.6188 23 16
      vertex 7.3812 23 16
    endloop
  endfacet
  facet normal 0 0.707107 0.707107
    outer loop
      vertex 16.619 8 31
      vertex 16.619 23 16
      vertex 16.6188 23 16
    endloop
  endfacet
  facet normal 1 0 0
    outer loop
      vertex 16.619 23 15.9997
      vertex 16.619 23 16
      vertex 16.619 8 31
    endloop
  endfacet
  facet normal 1 0 0
    outer loop
      vertex 16.619 8 15.9997
      vertex 16.619 23 15.9997
      vertex 16.619 8 31
    endloop
  endfacet
  facet normal 0.866025 5.38917e-11 0.5
    outer loop
      vertex 21.2376 24 8
      vertex 16.6188 23 16
      vertex 16.619 23 15.9997
    endloop
  endfacet
  facet normal 0.866025 -1.18424e-16 0.5
    outer loop
      vertex 16.619 8 15.9997
      vertex 21.2376 8 8
      vertex 16.619 23 15.9997
    endloop
  endfacet
  facet normal 0.866025 -1.11022e-16 0.5
    outer loop
      vertex 21.2376 8 8
      vertex 21.2376 24 8
      vertex 16.619 23 15.9997
    endloop
  endfacet
  facet normal 0.866025 -2.30756e-15 0.5
    outer loop
      vertex 21.2376 24 8
      vertex 16.6188 24 16
      vertex 16.6188 23 16
    endloop
  endfacet
  facet normal -0.866025 1.11022e-16 -0.5
    outer loop
      vertex 7.3812 24 7.32747e-15
      vertex 7.3812 23 7.10543e-15
      vertex 2.7624 24 8
    endloop
  endfacet
  facet normal -0.866025 0 -0.5
    outer loop
      vertex 2.7624 24 8
      vertex 7.3812 23 7.10543e-15
      vertex 7.381 23 0.000342946
    endloop
  endfacet
  facet normal -0.866025 1.26516e-16 -0.5
    outer loop
      vertex 2.7624 24 8
      vertex 7.381 23 0.000342946
      vertex 7.381 4 0.000342946
    endloop
  endfacet
  facet normal -0.866025 1.33227e-16 -0.5
    outer loop
      vertex 2.7624 24 8
      vertex 7.381 4 0.000342946
      vertex 2.7624 4 8
    endloop
  endfacet
  facet normal 0 2.22045e-16 -1
    outer loop
      vertex 16.6188 24 7.32747e-15
      vertex 16.6188 23 7.10543e-15
      vertex 7.3812 24 7.32747e-15
    endloop
  endfacet
  facet normal 0 2.22045e-16 -1
    outer loop
      vertex 7.3812 24 7.32747e-15
      vertex 16.6188 23 7.10543e-15
      vertex 7.3812 23 7.10543e-15
    endloop
  endfacet
  facet normal -0.866025 0 0.5
    outer loop
      vertex 7.381 23 15.9997
      vertex 7.3812 23 16
      vertex 7.3812 24 16
    endloop
  endfacet
  facet normal -0.866025 -3.34706e-17 0.5
    outer loop
      vertex 7.381 23 15.9997
      vertex 7.3812 24 16
      vertex 2.7624 24 8
    endloop
  endfacet
  facet normal -0.866025 -1.40239e-16 0.5
    outer loop
      vertex 7.381 23 15.9997
      vertex 2.7624 24 8
      vertex 7.381 4 15.9997
    endloop
  endfacet
  facet normal -0.866025 -1.33227e-16 0.5
    outer loop
      vertex 2.7624 24 8
      vertex 2.7624 4 8
      vertex 7.381 4 15.9997
    endloop
  endfacet
  facet normal 0.866025 -1.33227e-16 0.5
    outer loop
      vertex 7.3812 24 8
      vertex 7.3812 4 8
      vertex 9.6906 4 4
    endloop
  endfacet
  facet normal 0.866025 -1.11022e-16 0.5
    outer loop
      vertex 9.6906 24 4
      vertex 7.3812 24 8
      vertex 9.6906 4 4
    endloop
  endfacet
  facet normal 0 -2.22045e-16 1
    outer loop
      vertex 9.6906 24 4
      vertex 9.6906 4 4
      vertex 14.3094 4 4
    endloop
  endfacet
  facet normal 0 -2.22045e-16 1
    outer loop
      vertex 14.3094 24 4
      vertex 9.6906 24 4
      vertex 14.3094 4 4
    endloop
  endfacet
  facet normal -0.866025 -1.11022e-16 0.5
    outer loop
      vertex 14.3094 4 4
      vertex 16.6188 4 8
      vertex 14.3094 24 4
    endloop
  endfacet
  facet normal -0.866025 -1.35208e-16 0.5
    outer loop
      vertex 14.3094 24 4
      vertex 16.6188 4 8
      vertex 16.6188 24 8
    endloop
  endfacet
  facet normal -0.866025 1.33227e-16 -0.5
    outer loop
      vertex 14.3094 4 12
      vertex 14.3094 24 12
      vertex 16.6188 4 8
    endloop
  endfacet
  facet normal -0.866025 1.33227e-16 -0.5
    outer loop
      vertex 16.6188 4 8
      vertex 14.3094 24 12
      vertex 16.6188 24 8
    endloop
  endfacet
  facet normal 0 2.66454e-16 -1
    outer loop
      vertex 9.6906 4 12
      vertex 9.6906 24 12
      vertex 14.3094 4 12
    endloop
  endfacet
  facet normal 0 2.66454e-16 -1
    outer loop
      vertex 14.3094 4 12
      vertex 9.6906 24 12
      vertex 14.3094 24 12
    endloop
  endfacet
  facet normal 0.866025 1.35208e-16 -0.5
    outer loop
      vertex 9.6906 4 12
      vertex 7.3812 4 8
      vertex 7.3812 24 8
    endloop
  endfacet
  facet normal 0.866025 1.33227e-16 -0.5
    outer loop
      vertex 9.6906 24 12
      vertex 9.6906 4 12
      vertex 7.3812 24 8
    endloop
  endfacet
  facet normal 0 1 -0
    outer loop
      vertex 7.381 23 16
      vertex 7.3812 23 16
      vertex 7.381 23 15.9997
    endloop
  endfacet
  facet normal 0 1 0
    outer loop
      vertex 9.6906 24 12
      vertex 7.3812 24 16
      vertex 14.3094 24 12
    endloop
  endfacet
  facet normal 0 1 0
    outer loop
      vertex 14.3094 24 4
      vertex 21.2376 24 8
      vertex 16.6188 24 7.32747e-15
    endloop
  endfacet
  facet normal 0 1 -0
    outer loop
      vertex 14.3094 24 4
      vertex 16.6188 24 7.32747e-15
      vertex 9.6906 24 4
    endloop
  endfacet
  facet normal 7.69185e-16 1 4.44089e-16
    outer loop
      vertex 7.3812 24 8
      vertex 7.3812 24 7.32747e-15
      vertex 2.7624 24 8
    endloop
  endfacet
  facet normal -7.69185e-16 1 4.44089e-16
    outer loop
      vertex 9.6906 24 4
      vertex 7.3812 24 7.32747e-15
      vertex 7.3812 24 8
    endloop
  endfacet
  facet normal 7.69185e-16 1 -0
    outer loop
      vertex 7.3812 24 16
      vertex 7.3812 24 8
      vertex 2.7624 24 8
    endloop
  endfacet
  facet normal -0 1 0
    outer loop
      vertex 16.6188 24 7.32747e-15
      vertex 7.3812 24 7.32747e-15
      vertex 9.6906 24 4
    endloop
  endfacet
  facet normal -7.69185e-16 1 1.33227e-15
    outer loop
      vertex 16.6188 24 8
      vertex 21.2376 24 8
      vertex 14.3094 24 4
    endloop
  endfacet
  facet normal -3.84593e-16 1 2.22045e-16
    outer loop
      vertex 16.6188 24 16
      vertex 21.2376 24 8
      vertex 14.3094 24 12
    endloop
  endfacet
  facet normal 0 1 0
    outer loop
      vertex 16.6188 24 16
      vertex 14.3094 24 12
      vertex 7.3812 24 16
    endloop
  endfacet
  facet normal 0 1 0
    outer loop
      vertex 7.3812 24 8
      vertex 7.3812 24 16
      vertex 9.6906 24 12
    endloop
  endfacet
  facet normal -7.69185e-16 1 -4.44089e-16
    outer loop
      vertex 14.3094 24 12
      vertex 21.2376 24 8
      vertex 16.6188 24 8
    endloop
  endfacet
  facet normal 0 1 0
    outer loop
      vertex 16.619 23 16
      vertex 16.619 23 15.9997
      vertex 16.6188 23 16
    endloop
  endfacet
  facet normal 0 0 1
    outer loop
      vertex 16.6188 23 16
      vertex 16.6188 24 16
      vertex 7.3812 24 16
    endloop
  endfacet
  facet normal 0 0 1
    outer loop
      vertex 7.3812 23 16
      vertex 16.6188 23 16
      vertex 7.3812 24 16
    endloop
  endfacet
endsolid OpenSCAD_Model
