solid Hotend_base_plate10272012_3
facet normal 0.0 -1.0 0.0
outer loop
vertex 76.2 0.0 5.52769012569999
vertex 44.1956990385249 0.0 0.9378108625
vertex 76.2 0.0 0.9378108625
endloop
endfacet
facet normal 0.0 -1.0 0.0
outer loop
vertex 44.1956990385249 0.0 0.9378108625
vertex 76.2 0.0 5.52769012569999
vertex 44.1956990385249 0.0 5.52769012569999
endloop
endfacet
facet normal 0.999867345440117 0.0162877721783405 0.0
outer loop
vertex 31.9894248356512 14.5453339385667 0.9378108625
vertex 31.9894248356512 0.0 5.52769012569999
vertex 31.9894248356512 0.0 0.9378108625
endloop
endfacet
facet normal 1.0 -3.87748606454584e-016 0.0
outer loop
vertex 31.9894248356512 0.0 5.52769012569999
vertex 31.9894248356512 14.5453339385667 0.9378108625
vertex 31.9894248356512 14.5453339385667 5.52769012569999
endloop
endfacet
facet normal -0.999867345440117 -0.0162877721783721 8.00321542050611e-019
outer loop
vertex 44.1956990385249 14.4861497733057 5.52769012569999
vertex 44.1956990385249 0.0 0.9378108625
vertex 44.1956990385249 0.0 5.52769012569999
endloop
endfacet
facet normal -1.0 0.0 0.0
outer loop
vertex 44.1956990385249 0.0 0.9378108625
vertex 44.1956990385249 14.4861497733057 5.52769012569999
vertex 44.1956990385249 13.5715477766504 4.16220104489799
endloop
endfacet
facet normal -0.998369279347851 0.057085743005167 0.0
outer loop
vertex 44.1956990385249 13.5715477766504 4.16220104489799
vertex 44.1956990385249 14.4861497733057 5.52769012569999
vertex 44.1956990385249 14.4861497733057 4.16220104489799
endloop
endfacet
facet normal -0.993439322574267 0.114360449295995 0.0
outer loop
vertex 44.1956990385249 13.5715477766504 0.9378108625
vertex 44.1956990385249 0.0 0.9378108625
vertex 44.1956990385249 13.5715477766504 4.16220104489799
endloop
endfacet
facet normal 0.412572273360314 -0.910924870257862 0.0
outer loop
vertex 35.5620358746569 19.8911112721956 5.52769012569999
vertex 34.1981935865406 19.0432993968725 0.9378108625
vertex 35.5620358746569 19.8911112721956 0.9378108625
endloop
endfacet
facet normal 0.634278919129798 -0.773104296164195 0.0
outer loop
vertex 34.1981935865406 19.0432993968725 0.9378108625
vertex 35.5620358746569 19.8911112721956 5.52769012569999
vertex 34.1981935865406 19.0432993968725 5.52769012569999
endloop
endfacet
facet normal 0.162749508969243 -0.98666741981798 0.0
outer loop
vertex 37.0988362237314 20.357046299724 5.52769012569999
vertex 35.5620358746569 19.8911112721956 0.9378108625
vertex 37.0988362237314 20.357046299724 0.9378108625
endloop
endfacet
facet normal 0.412572273360314 -0.910924870257862 0.0
outer loop
vertex 35.5620358746569 19.8911112721956 0.9378108625
vertex 37.0988362237314 20.357046299724 5.52769012569999
vertex 35.5620358746569 19.8911112721956 5.52769012569999
endloop
endfacet
facet normal -0.0981643655018013 -0.995170215262509 0.0
outer loop
vertex 38.7038642296572 20.4093517773258 5.52769012569999
vertex 37.0988362237314 20.357046299724 0.9378108625
vertex 38.7038642296572 20.4093517773258 0.9378108625
endloop
endfacet
facet normal 0.162749508969243 -0.98666741981798 0.0
outer loop
vertex 37.0988362237314 20.357046299724 0.9378108625
vertex 38.7038642296572 20.4093517773258 5.52769012569999
vertex 37.0988362237314 20.357046299724 5.52769012569999
endloop
endfacet
facet normal 0.634278919129798 -0.773104296164195 0.0
outer loop
vertex 34.1981935865406 19.0432993968725 0.9378108625
vertex 33.1002529574615 17.8713876519827 5.52769012569999
vertex 33.1002529574615 17.8713876519827 0.9378108625
endloop
endfacet
facet normal 0.812760504756061 -0.582597941902195 0.0
outer loop
vertex 33.1002529574615 17.8713876519827 5.52769012569999
vertex 34.1981935865406 19.0432993968725 0.9378108625
vertex 34.1981935865406 19.0432993968725 5.52769012569999
endloop
endfacet
facet normal 0.812760504756061 -0.582597941902195 0.0
outer loop
vertex 33.1002529574615 17.8713876519827 0.9378108625
vertex 32.3430368268588 16.4552398862646 5.52769012569999
vertex 32.3430368268588 16.4552398862646 0.9378108625
endloop
endfacet
facet normal 0.935853805133438 -0.352388500688181 0.0
outer loop
vertex 32.3430368268588 16.4552398862646 5.52769012569999
vertex 33.1002529574615 17.8713876519827 0.9378108625
vertex 33.1002529574615 17.8713876519827 5.52769012569999
endloop
endfacet
facet normal 0.935853805133438 -0.352388500688181 0.0
outer loop
vertex 32.3430368268588 16.4552398862646 0.9378108625
vertex 31.9781482226742 14.8913642296572 5.52769012569999
vertex 31.9781482226742 14.8913642296572 0.9378108625
endloop
endfacet
facet normal 0.995170215262506 -0.0981643655018314 0.0
outer loop
vertex 31.9781482226742 14.8913642296572 5.52769012569999
vertex 32.3430368268588 16.4552398862646 0.9378108625
vertex 32.3430368268588 16.4552398862646 5.52769012569999
endloop
endfacet
facet normal -0.910924870257862 -0.412572273360313 0.0
outer loop
vertex 43.7036112721956 16.8254641253431 5.52769012569999
vertex 44.169546299724 15.2886637762686 0.9378108625
vertex 44.169546299724 15.2886637762686 5.52769012569999
endloop
endfacet
facet normal -0.98666741981798 -0.162749508969244 8.07120402681653e-019
outer loop
vertex 44.169546299724 15.2886637762686 0.9378108625
vertex 43.7036112721956 16.8254641253431 5.52769012569999
vertex 43.7036112721956 16.8254641253431 0.9378108625
endloop
endfacet
facet normal -0.773104296164196 -0.634278919129797 0.0
outer loop
vertex 42.8557993968726 18.1893064134594 5.52769012569999
vertex 43.7036112721956 16.8254641253431 0.9378108625
vertex 43.7036112721956 16.8254641253431 5.52769012569999
endloop
endfacet
facet normal -0.910924870257862 -0.412572273360313 0.0
outer loop
vertex 43.7036112721956 16.8254641253431 0.9378108625
vertex 42.8557993968726 18.1893064134594 5.52769012569999
vertex 42.8557993968726 18.1893064134594 0.9378108625
endloop
endfacet
facet normal -0.773104296164196 -0.634278919129797 0.0
outer loop
vertex 42.8557993968726 18.1893064134594 5.52769012569999
vertex 41.6838876519827 19.2872470425385 0.9378108625
vertex 42.8557993968726 18.1893064134594 0.9378108625
endloop
endfacet
facet normal -0.582597941902195 -0.81276050475606 0.0
outer loop
vertex 41.6838876519827 19.2872470425385 0.9378108625
vertex 42.8557993968726 18.1893064134594 5.52769012569999
vertex 41.6838876519827 19.2872470425385 5.52769012569999
endloop
endfacet
facet normal -0.582597941902195 -0.81276050475606 0.0
outer loop
vertex 41.6838876519827 19.2872470425385 5.52769012569999
vertex 40.2677398862646 20.0444631731412 0.9378108625
vertex 41.6838876519827 19.2872470425385 0.9378108625
endloop
endfacet
facet normal -0.352388500688182 -0.935853805133438 0.0
outer loop
vertex 40.2677398862646 20.0444631731412 0.9378108625
vertex 41.6838876519827 19.2872470425385 5.52769012569999
vertex 40.2677398862646 20.0444631731412 5.52769012569999
endloop
endfacet
facet normal -0.352388500688182 -0.935853805133438 0.0
outer loop
vertex 40.2677398862646 20.0444631731412 5.52769012569999
vertex 38.7038642296572 20.4093517773258 0.9378108625
vertex 40.2677398862646 20.0444631731412 0.9378108625
endloop
endfacet
facet normal -0.0981643655018013 -0.995170215262509 0.0
outer loop
vertex 38.7038642296572 20.4093517773258 0.9378108625
vertex 40.2677398862646 20.0444631731412 5.52769012569999
vertex 38.7038642296572 20.4093517773258 5.52769012569999
endloop
endfacet
facet normal -1.0 0.0 0.0
outer loop
vertex 0.0 28.575 5.52769012569999
vertex 0.0 0.0 0.9378108625
vertex 0.0 0.0 5.52769012569999
endloop
endfacet
facet normal -1.0 0.0 0.0
outer loop
vertex 0.0 0.0 0.9378108625
vertex 0.0 28.575 5.52769012569999
vertex 0.0 28.575 0.9378108625
endloop
endfacet
facet normal 0.0 1.0 0.0
outer loop
vertex 0.0 28.575 5.52769012569999
vertex 76.2 28.575 0.9378108625
vertex 0.0 28.575 0.9378108625
endloop
endfacet
facet normal 0.0 1.0 0.0
outer loop
vertex 76.2 28.575 0.9378108625
vertex 0.0 28.575 5.52769012569999
vertex 76.2 28.575 5.52769012569999
endloop
endfacet
facet normal 1.0 0.0 0.0
outer loop
vertex 76.2 28.575 0.9378108625
vertex 76.2 0.0 5.52769012569999
vertex 76.2 0.0 0.9378108625
endloop
endfacet
facet normal 1.0 0.0 0.0
outer loop
vertex 76.2 0.0 5.52769012569999
vertex 76.2 28.575 0.9378108625
vertex 76.2 28.575 5.52769012569999
endloop
endfacet
facet normal 0.0 -1.0 0.0
outer loop
vertex 31.9894248356512 0.0 5.52769012569999
vertex 0.0 0.0 0.9378108625
vertex 31.9894248356512 0.0 0.9378108625
endloop
endfacet
facet normal 0.0 -1.0 0.0
outer loop
vertex 0.0 0.0 0.9378108625
vertex 31.9894248356512 0.0 5.52769012569999
vertex 0.0 0.0 5.52769012569999
endloop
endfacet
facet normal 0.995170215262506 -0.0981643655018314 0.0
outer loop
vertex 31.9781482226742 14.8913642296572 0.9378108625
vertex 31.9894248356512 14.5453339385667 5.52769012569999
vertex 31.9894248356512 14.5453339385667 0.9378108625
endloop
endfacet
facet normal 0.999867345440117 0.0162877721783405 0.0
outer loop
vertex 31.9894248356512 14.5453339385667 5.52769012569999
vertex 31.9781482226742 14.8913642296572 0.9378108625
vertex 31.9781482226742 14.8913642296572 5.52769012569999
endloop
endfacet
facet normal 0.505203407554708 -0.863000299533617 0.0
outer loop
vertex 4.56759851421585 17.0289169776178 5.5276901257
vertex 3.91308329803901 16.5204017206957 0.9378108625
vertex 4.56759851421585 17.0289169776178 0.9378108625
endloop
endfacet
facet normal 0.711349932334814 -0.702838013888873 0.0
outer loop
vertex 3.91308329803901 16.5204017206957 0.9378108625
vertex 4.56759851421585 17.0289169776178 5.5276901257
vertex 3.91308329803901 16.5204017206957 5.5276901257
endloop
endfacet
facet normal 0.264628105437855 -0.964350540940571 0.0
outer loop
vertex 5.33142509843686 17.3507039940848 5.5276901257
vertex 4.56759851421585 17.0289169776178 0.9378108625
vertex 5.33142509843686 17.3507039940848 0.9378108625
endloop
endfacet
facet normal 0.505203407554708 -0.863000299533617 0.0
outer loop
vertex 4.56759851421585 17.0289169776178 0.9378108625
vertex 5.33142509843686 17.3507039940848 5.5276901257
vertex 4.56759851421585 17.0289169776178 5.5276901257
endloop
endfacet
facet normal 0.711349932334814 -0.702838013888873 0.0
outer loop
vertex 3.91308329803901 16.5204017206957 0.9378108625
vertex 3.41248358025126 15.8598126977167 5.5276901257
vertex 3.41248358025126 15.8598126977167 0.9378108625
endloop
endfacet
facet normal 0.869019134787648 -0.494778479092338 0.0
outer loop
vertex 3.41248358025126 15.8598126977167 5.5276901257
vertex 3.91308329803901 16.5204017206957 0.9378108625
vertex 3.91308329803901 16.5204017206957 5.5276901257
endloop
endfacet
facet normal 0.869019134787648 -0.494778479092338 0.0
outer loop
vertex 3.41248358025126 15.8598126977167 0.9378108625
vertex 3.09991440433969 15.0921679589218 5.5276901257
vertex 3.09991440433969 15.0921679589218 0.9378108625
endloop
endfacet
facet normal 0.967466119326727 -0.253000608605757 0.0
outer loop
vertex 3.09991440433969 15.0921679589218 5.5276901257
vertex 3.41248358025126 15.8598126977167 0.9378108625
vertex 3.41248358025126 15.8598126977167 5.5276901257
endloop
endfacet
facet normal 0.0684058208934261 -0.997657578364389 0.0
outer loop
vertex 6.1525095312705 17.4638335167029 5.5276901257
vertex 5.33142509843686 17.3507039940848 0.9378108625
vertex 6.1525095312705 17.4638335167029 0.9378108625
endloop
endfacet
facet normal 0.264628105437855 -0.964350540940571 0.0
outer loop
vertex 5.33142509843686 17.3507039940848 0.9378108625
vertex 6.1525095312705 17.4638335167029 5.5276901257
vertex 5.33142509843686 17.3507039940848 5.5276901257
endloop
endfacet
facet normal 0.253000608605757 0.967466119326727 -3.56899256890481e-017
outer loop
vertex 5.36834240087877 11.2171860977362 5.5276901257
vertex 6.1907291351336 11.1139485364942 0.9378108625
vertex 5.36834240087877 11.2171860977362 0.9378108625
endloop
endfacet
facet normal -0.0060188352540321 0.999981886647046 -8.97240210525233e-018
outer loop
vertex 6.1907291351336 11.1139485364942 0.9378108625
vertex 5.36834240087877 11.2171860977362 5.5276901257
vertex 6.1907291351336 11.1139485364942 5.5276901257
endloop
endfacet
facet normal -0.00601883525403213 0.999981886647046 -8.97240210525232e-018
outer loop
vertex 6.1907291351336 11.1139485364942 5.5276901257
vertex 6.87795795086637 11.208635349134 0.9378108625
vertex 6.1907291351336 11.1139485364942 0.9378108625
endloop
endfacet
facet normal -0.136491171237127 0.990641287335793 6.93914873722255e-018
outer loop
vertex 6.87795795086637 11.208635349134 0.9378108625
vertex 6.1907291351336 11.1139485364942 5.5276901257
vertex 7.01181356796724 11.2270780591122 0.9378108625
endloop
endfacet
facet normal -0.0650031472745515 0.997885058934346 2.34389010087269e-018
outer loop
vertex 7.01181356796724 11.2270780591122 0.9378108625
vertex 6.1907291351336 11.1139485364942 5.5276901257
vertex 7.01181356796724 11.2270780591122 5.5276901257
endloop
endfacet
facet normal -0.0650031472745515 0.997885058934346 2.34389010087269e-018
outer loop
vertex 7.01181356796724 11.2270780591122 5.5276901257
vertex 6.1907291351336 11.1139485364942 5.5276901257
vertex 6.87795795086637 11.208635349134 5.5276901257
endloop
endfacet
facet normal 0.967466119326727 -0.253000608605757 0.0
outer loop
vertex 3.09991440433969 15.0921679589218 0.9378108625
vertex 2.99667684309768 14.269781224667 5.5276901257
vertex 2.99667684309768 14.269781224667 0.9378108625
endloop
endfacet
facet normal 0.999981886647046 0.00601883525403245 0.0
outer loop
vertex 2.99667684309768 14.269781224667 5.5276901257
vertex 3.09991440433969 15.0921679589218 0.9378108625
vertex 3.09991440433969 15.0921679589218 5.5276901257
endloop
endfacet
facet normal 0.999981886647046 0.00601883525403245 0.0
outer loop
vertex 2.99667684309768 14.269781224667 0.9378108625
vertex 3.10980636571574 13.4486967918333 5.5276901257
vertex 3.10980636571574 13.4486967918333 0.9378108625
endloop
endfacet
facet normal 0.964350540940571 0.264628105437855 0.0
outer loop
vertex 3.10980636571574 13.4486967918333 5.5276901257
vertex 2.99667684309768 14.269781224667 0.9378108625
vertex 2.99667684309768 14.269781224667 5.5276901257
endloop
endfacet
facet normal 0.964350540940571 0.264628105437855 0.0
outer loop
vertex 3.10980636571574 13.4486967918333 0.9378108625
vertex 3.43159338218282 12.6848702076123 5.5276901257
vertex 3.43159338218282 12.6848702076123 0.9378108625
endloop
endfacet
facet normal 0.863000299533617 0.505203407554708 0.0
outer loop
vertex 3.43159338218282 12.6848702076123 5.5276901257
vertex 3.10980636571574 13.4486967918333 0.9378108625
vertex 3.10980636571574 13.4486967918333 5.5276901257
endloop
endfacet
facet normal 0.863000299533617 0.505203407554708 0.0
outer loop
vertex 3.43159338218282 12.6848702076123 0.9378108625
vertex 3.94010863910488 12.0303549914355 5.5276901257
vertex 3.94010863910488 12.0303549914355 0.9378108625
endloop
endfacet
facet normal 0.702838013888873 0.711349932334814 0.0
outer loop
vertex 3.94010863910488 12.0303549914355 5.5276901257
vertex 3.43159338218282 12.6848702076123 0.9378108625
vertex 3.43159338218282 12.6848702076123 5.5276901257
endloop
endfacet
facet normal 0.702838013888873 0.711349932334814 0.0
outer loop
vertex 3.94010863910488 12.0303549914355 5.5276901257
vertex 4.60069766208388 11.5297552736477 0.9378108625
vertex 3.94010863910488 12.0303549914355 0.9378108625
endloop
endfacet
facet normal 0.494778479092338 0.869019134787649 -2.32180103947278e-017
outer loop
vertex 4.60069766208388 11.5297552736477 0.9378108625
vertex 3.94010863910488 12.0303549914355 5.5276901257
vertex 4.60069766208388 11.5297552736477 5.5276901257
endloop
endfacet
facet normal 0.494778479092338 0.869019134787649 -2.32180103947278e-017
outer loop
vertex 4.60069766208388 11.5297552736477 5.5276901257
vertex 5.36834240087877 11.2171860977362 0.9378108625
vertex 4.60069766208388 11.5297552736477 0.9378108625
endloop
endfacet
facet normal 0.253000608605757 0.967466119326727 -3.56899256890481e-017
outer loop
vertex 5.36834240087877 11.2171860977362 0.9378108625
vertex 4.60069766208388 11.5297552736477 5.5276901257
vertex 5.36834240087877 11.2171860977362 5.5276901257
endloop
endfacet
facet normal 0.0 0.0 1.0
outer loop
vertex 6.87795795086637 11.208635349134 5.5276901257
vertex 5.36834240087877 11.2171860977362 5.5276901257
vertex 6.1907291351336 11.1139485364942 5.5276901257
endloop
endfacet
facet normal -0.995170215262509 0.0981643655017998 8.07120402681653e-019
outer loop
vertex 44.2218517773258 13.6836357703428 4.16220104489799
vertex 44.1956990385249 13.5715477766504 0.9378108625
vertex 44.1956990385249 13.5715477766504 4.16220104489799
endloop
endfacet
facet normal -0.993439322574267 0.114360449295995 0.0
outer loop
vertex 44.1956990385249 13.5715477766504 0.9378108625
vertex 44.2218517773258 13.6836357703428 4.16220104489799
vertex 44.2218517773258 13.6836357703428 0.9378108625
endloop
endfacet
facet normal -0.98666741981798 -0.162749508969244 8.07120402681653e-019
outer loop
vertex 44.169546299724 15.2886637762686 5.52769012569999
vertex 44.1956990385249 14.4861497733057 4.16220104489799
vertex 44.1956990385249 14.4861497733057 5.52769012569999
endloop
endfacet
facet normal -0.999701522290877 -0.0244308479039071 1.20044249477052e-018
outer loop
vertex 44.1956990385249 14.4861497733057 4.16220104489799
vertex 44.169546299724 15.2886637762686 5.52769012569999
vertex 44.1956990385249 14.4861497733057 0.9378108625
endloop
endfacet
facet normal -0.999469416954931 -0.0325712230622446 1.60043075149737e-018
outer loop
vertex 44.1956990385249 14.4861497733057 0.9378108625
vertex 44.169546299724 15.2886637762686 5.52769012569999
vertex 44.169546299724 15.2886637762686 0.9378108625
endloop
endfacet
facet normal -0.999701522290877 -0.0244308479039071 1.20044249477052e-018
outer loop
vertex 44.1956990385249 14.4861497733057 4.16220104489799
vertex 44.2218517773258 13.6836357703428 0.9378108625
vertex 44.2218517773258 13.6836357703428 4.16220104489799
endloop
endfacet
facet normal -0.995170215262509 0.0981643655017998 8.07120402681653e-019
outer loop
vertex 44.2218517773258 13.6836357703428 0.9378108625
vertex 44.1956990385249 14.4861497733057 4.16220104489799
vertex 44.1956990385249 14.4861497733057 0.9378108625
endloop
endfacet
facet normal 1.0 0.0 0.0
outer loop
vertex 51.8631565731866 17.2936203153405 0.937810862499998
vertex 51.8631565731866 10.9436203153405 5.5276901257
vertex 51.8631565731866 10.9436203153405 0.937810862499998
endloop
endfacet
facet normal 1.0 0.0 0.0
outer loop
vertex 51.8631565731866 10.9436203153405 5.5276901257
vertex 51.8631565731866 17.2936203153405 0.937810862499998
vertex 51.8631565731866 17.2936203153405 5.5276901257
endloop
endfacet
facet normal -0.0650031472745515 0.997885058934346 2.34389010087269e-018
outer loop
vertex 7.01181356796724 11.2270780591122 5.5276901257
vertex 23.6150095312705 11.1138335167029 0.937810862500004
vertex 7.01181356796724 11.2270780591122 0.9378108625
endloop
endfacet
facet normal 0.00682048857424156 0.999976740197295 -2.26347006303118e-018
outer loop
vertex 23.6150095312705 11.1138335167029 0.937810862500004
vertex 7.01181356796724 11.2270780591122 5.5276901257
vertex 23.6150095312705 11.1138335167029 5.5276901257
endloop
endfacet
facet normal -1.0 0.0 0.0
outer loop
vertex 23.6150095312705 17.4638335167029 5.5276901257
vertex 23.6150095312705 11.1138335167029 0.937810862500004
vertex 23.6150095312705 11.1138335167029 5.5276901257
endloop
endfacet
facet normal -1.0 0.0 0.0
outer loop
vertex 23.6150095312705 11.1138335167029 0.937810862500004
vertex 23.6150095312705 17.4638335167029 5.5276901257
vertex 23.6150095312705 17.4638335167029 0.937810862500004
endloop
endfacet
facet normal 0.0 -1.0 0.0
outer loop
vertex 23.6150095312705 17.4638335167029 0.937810862500004
vertex 6.1525095312705 17.4638335167029 5.5276901257
vertex 6.1525095312705 17.4638335167029 0.9378108625
endloop
endfacet
facet normal 0.0684058208934261 -0.997657578364389 0.0
outer loop
vertex 6.1525095312705 17.4638335167029 5.5276901257
vertex 23.6150095312705 17.4638335167029 0.937810862500004
vertex 23.6150095312705 17.4638335167029 5.5276901257
endloop
endfacet
facet normal 0.0 0.0 -1.0
outer loop
vertex 0.0 28.575 0.9378108625
vertex 3.09991440433969 15.0921679589218 0.9378108625
vertex 0.0 0.0 0.9378108625
endloop
endfacet
facet normal 0.0 0.0 -1.0
outer loop
vertex 3.09991440433969 15.0921679589218 0.9378108625
vertex 0.0 28.575 0.9378108625
vertex 3.41248358025126 15.8598126977167 0.9378108625
endloop
endfacet
facet normal 0.0 0.0 -1.0
outer loop
vertex 3.41248358025126 15.8598126977167 0.9378108625
vertex 0.0 28.575 0.9378108625
vertex 3.91308329803901 16.5204017206957 0.9378108625
endloop
endfacet
facet normal 0.0 0.0 -1.0
outer loop
vertex 3.91308329803901 16.5204017206957 0.9378108625
vertex 0.0 28.575 0.9378108625
vertex 4.56759851421585 17.0289169776178 0.9378108625
endloop
endfacet
facet normal 0.0 0.0 -1.0
outer loop
vertex 4.56759851421585 17.0289169776178 0.9378108625
vertex 0.0 28.575 0.9378108625
vertex 5.33142509843686 17.3507039940848 0.9378108625
endloop
endfacet
facet normal 0.0 0.0 -1.0
outer loop
vertex 5.33142509843686 17.3507039940848 0.9378108625
vertex 0.0 28.575 0.9378108625
vertex 76.2 28.575 0.9378108625
endloop
endfacet
facet normal 0.0 0.0 -1.0
outer loop
vertex 0.0 0.0 0.9378108625
vertex 3.09991440433969 15.0921679589218 0.9378108625
vertex 2.99667684309768 14.269781224667 0.9378108625
endloop
endfacet
facet normal 0.0 0.0 -1.0
outer loop
vertex 5.33142509843686 17.3507039940848 0.9378108625
vertex 76.2 28.575 0.9378108625
vertex 6.1525095312705 17.4638335167029 0.9378108625
endloop
endfacet
facet normal 0.0 0.0 -1.0
outer loop
vertex 6.1525095312705 17.4638335167029 0.9378108625
vertex 76.2 28.575 0.9378108625
vertex 37.0988362237314 20.357046299724 0.9378108625
endloop
endfacet
facet normal 0.0 0.0 -1.0
outer loop
vertex 6.1525095312705 17.4638335167029 0.9378108625
vertex 37.0988362237314 20.357046299724 0.9378108625
vertex 23.6150095312705 17.4638335167029 0.937810862500004
endloop
endfacet
facet normal 0.0 0.0 -1.0
outer loop
vertex 23.6150095312705 17.4638335167029 0.937810862500004
vertex 37.0988362237314 20.357046299724 0.9378108625
vertex 35.5620358746569 19.8911112721956 0.9378108625
endloop
endfacet
facet normal 0.0 0.0 -1.0
outer loop
vertex 23.6150095312705 17.4638335167029 0.937810862500004
vertex 35.5620358746569 19.8911112721956 0.9378108625
vertex 34.1981935865406 19.0432993968725 0.9378108625
endloop
endfacet
facet normal 0.0 0.0 -1.0
outer loop
vertex 23.6150095312705 17.4638335167029 0.937810862500004
vertex 34.1981935865406 19.0432993968725 0.9378108625
vertex 23.6150095312705 11.1138335167029 0.937810862500004
endloop
endfacet
facet normal 0.0 0.0 -1.0
outer loop
vertex 23.6150095312705 11.1138335167029 0.937810862500004
vertex 34.1981935865406 19.0432993968725 0.9378108625
vertex 33.1002529574615 17.8713876519827 0.9378108625
endloop
endfacet
facet normal 0.0 0.0 -1.0
outer loop
vertex 23.6150095312705 11.1138335167029 0.937810862500004
vertex 33.1002529574615 17.8713876519827 0.9378108625
vertex 32.3430368268588 16.4552398862646 0.9378108625
endloop
endfacet
facet normal 0.0 0.0 -1.0
outer loop
vertex 23.6150095312705 11.1138335167029 0.937810862500004
vertex 32.3430368268588 16.4552398862646 0.9378108625
vertex 31.9781482226742 14.8913642296572 0.9378108625
endloop
endfacet
facet normal 0.0 0.0 -1.0
outer loop
vertex 37.0988362237314 20.357046299724 0.9378108625
vertex 76.2 28.575 0.9378108625
vertex 38.7038642296572 20.4093517773258 0.9378108625
endloop
endfacet
facet normal 0.0 0.0 -1.0
outer loop
vertex 38.7038642296572 20.4093517773258 0.9378108625
vertex 76.2 28.575 0.9378108625
vertex 40.2677398862646 20.0444631731412 0.9378108625
endloop
endfacet
facet normal 0.0 0.0 -1.0
outer loop
vertex 40.2677398862646 20.0444631731412 0.9378108625
vertex 76.2 28.575 0.9378108625
vertex 41.6838876519827 19.2872470425385 0.9378108625
endloop
endfacet
facet normal 0.0 0.0 -1.0
outer loop
vertex 41.6838876519827 19.2872470425385 0.9378108625
vertex 76.2 28.575 0.9378108625
vertex 42.8557993968726 18.1893064134594 0.9378108625
endloop
endfacet
facet normal 0.0 0.0 -1.0
outer loop
vertex 42.8557993968726 18.1893064134594 0.9378108625
vertex 76.2 28.575 0.9378108625
vertex 43.7036112721956 16.8254641253431 0.9378108625
endloop
endfacet
facet normal 0.0 0.0 -1.0
outer loop
vertex 43.7036112721956 16.8254641253431 0.9378108625
vertex 76.2 28.575 0.9378108625
vertex 44.169546299724 15.2886637762686 0.9378108625
endloop
endfacet
facet normal 0.0 0.0 -1.0
outer loop
vertex 44.169546299724 15.2886637762686 0.9378108625
vertex 76.2 28.575 0.9378108625
vertex 44.1956990385249 14.4861497733057 0.9378108625
endloop
endfacet
facet normal 0.0 0.0 -1.0
outer loop
vertex 44.1956990385249 14.4861497733057 0.9378108625
vertex 76.2 28.575 0.9378108625
vertex 51.8631565731866 17.2936203153405 0.937810862499998
endloop
endfacet
facet normal 0.0 0.0 -1.0
outer loop
vertex 44.1956990385249 14.4861497733057 0.9378108625
vertex 51.8631565731866 17.2936203153405 0.937810862499998
vertex 44.2218517773258 13.6836357703428 0.9378108625
endloop
endfacet
facet normal 0.0 0.0 -1.0
outer loop
vertex 51.8631565731866 17.2936203153405 0.937810862499998
vertex 76.2 28.575 0.9378108625
vertex 69.3256565731866 17.2936203153405 0.937810862499998
endloop
endfacet
facet normal 0.0 0.0 -1.0
outer loop
vertex 69.3256565731866 17.2936203153405 0.937810862499998
vertex 76.2 28.575 0.9378108625
vertex 70.1395261231208 17.1367946464612 0.937810862499998
endloop
endfacet
facet normal 0.0 0.0 -1.0
outer loop
vertex 70.1395261231208 17.1367946464612 0.937810862499998
vertex 76.2 28.575 0.9378108625
vertex 70.8850742707656 16.7746677429136 0.937810862499998
endloop
endfacet
facet normal 0.0 0.0 -1.0
outer loop
vertex 70.8850742707656 16.7746677429136 0.937810862499998
vertex 76.2 28.575 0.9378108625
vertex 71.5114931419355 16.2319179547315 0.937810862499998
endloop
endfacet
facet normal 0.0 0.0 -1.0
outer loop
vertex 71.5114931419355 16.2319179547315 0.937810862499998
vertex 76.2 28.575 0.9378108625
vertex 71.9760933257666 15.5455327830431 0.937810862499998
endloop
endfacet
facet normal 0.0 0.0 -1.0
outer loop
vertex 71.9760933257666 15.5455327830431 0.937810862499998
vertex 76.2 28.575 0.9378108625
vertex 72.2472130875187 14.7622882429939 0.937810862499998
endloop
endfacet
facet normal 0.0 0.0 -1.0
outer loop
vertex 72.2472130875187 14.7622882429939 0.937810862499998
vertex 76.2 28.575 0.9378108625
vertex 72.3063760634751 13.9355611556153 0.937810862499998
endloop
endfacet
facet normal 0.0 0.0 -1.0
outer loop
vertex 44.2218517773258 13.6836357703428 0.9378108625
vertex 44.1956990385249 0.0 0.9378108625
vertex 44.1956990385249 13.5715477766504 0.9378108625
endloop
endfacet
facet normal 0.0 0.0 -1.0
outer loop
vertex 44.1956990385249 0.0 0.9378108625
vertex 44.2218517773258 13.6836357703428 0.9378108625
vertex 76.2 0.0 0.9378108625
endloop
endfacet
facet normal 0.0 0.0 -1.0
outer loop
vertex 76.2 0.0 0.9378108625
vertex 44.2218517773258 13.6836357703428 0.9378108625
vertex 51.8631565731866 10.9436203153405 0.937810862499998
endloop
endfacet
facet normal 0.0 0.0 -1.0
outer loop
vertex 51.8631565731866 10.9436203153405 0.937810862499998
vertex 44.2218517773258 13.6836357703428 0.9378108625
vertex 51.8631565731866 17.2936203153405 0.937810862499998
endloop
endfacet
facet normal 0.0 0.0 -1.0
outer loop
vertex 76.2 0.0 0.9378108625
vertex 51.8631565731866 10.9436203153405 0.937810862499998
vertex 68.9483169037499 10.9548416653268 0.937810862499998
endloop
endfacet
facet normal 0.0 0.0 -1.0
outer loop
vertex 76.2 0.0 0.9378108625
vertex 68.9483169037499 10.9548416653268 0.937810862499998
vertex 69.3256565731866 10.9818451809138 0.937810862499998
endloop
endfacet
facet normal 0.0 0.0 -1.0
outer loop
vertex 76.2 0.0 0.9378108625
vertex 69.3256565731866 10.9818451809138 0.937810862499998
vertex 69.7750439911285 11.0140046412832 0.937810862499998
endloop
endfacet
facet normal 0.0 0.0 -1.0
outer loop
vertex 76.2 0.0 0.9378108625
vertex 69.7750439911285 11.0140046412832 0.937810862499998
vertex 70.5582885311778 11.2851244030353 0.937810862499998
endloop
endfacet
facet normal 0.0 0.0 -1.0
outer loop
vertex 76.2 0.0 0.9378108625
vertex 70.5582885311778 11.2851244030353 0.937810862499998
vertex 71.2446737028662 11.7497245868663 0.937810862499998
endloop
endfacet
facet normal 0.0 0.0 -1.0
outer loop
vertex 76.2 0.0 0.9378108625
vertex 71.2446737028662 11.7497245868663 0.937810862499998
vertex 71.7874234910482 12.3761434580363 0.937810862499998
endloop
endfacet
facet normal 0.0 0.0 -1.0
outer loop
vertex 76.2 0.0 0.9378108625
vertex 71.7874234910482 12.3761434580363 0.937810862499998
vertex 72.1495503945958 13.1216916056811 0.937810862499998
endloop
endfacet
facet normal 0.0 0.0 -1.0
outer loop
vertex 76.2 0.0 0.9378108625
vertex 72.1495503945958 13.1216916056811 0.937810862499998
vertex 72.3063760634751 13.9355611556153 0.937810862499998
endloop
endfacet
facet normal 0.0 0.0 -1.0
outer loop
vertex 76.2 0.0 0.9378108625
vertex 72.3063760634751 13.9355611556153 0.937810862499998
vertex 76.2 28.575 0.9378108625
endloop
endfacet
facet normal 0.0 0.0 -1.0
outer loop
vertex 0.0 0.0 0.9378108625
vertex 4.60069766208388 11.5297552736477 0.9378108625
vertex 31.9894248356512 0.0 0.9378108625
endloop
endfacet
facet normal 0.0 0.0 -1.0
outer loop
vertex 4.60069766208388 11.5297552736477 0.9378108625
vertex 0.0 0.0 0.9378108625
vertex 3.94010863910488 12.0303549914355 0.9378108625
endloop
endfacet
facet normal 0.0 0.0 -1.0
outer loop
vertex 3.94010863910488 12.0303549914355 0.9378108625
vertex 0.0 0.0 0.9378108625
vertex 3.43159338218282 12.6848702076123 0.9378108625
endloop
endfacet
facet normal 0.0 0.0 -1.0
outer loop
vertex 3.43159338218282 12.6848702076123 0.9378108625
vertex 0.0 0.0 0.9378108625
vertex 3.10980636571574 13.4486967918333 0.9378108625
endloop
endfacet
facet normal 0.0 0.0 -1.0
outer loop
vertex 3.10980636571574 13.4486967918333 0.9378108625
vertex 0.0 0.0 0.9378108625
vertex 2.99667684309768 14.269781224667 0.9378108625
endloop
endfacet
facet normal 0.0 0.0 -1.0
outer loop
vertex 31.9894248356512 0.0 0.9378108625
vertex 4.60069766208388 11.5297552736477 0.9378108625
vertex 5.36834240087877 11.2171860977362 0.9378108625
endloop
endfacet
facet normal 0.0 0.0 -1.0
outer loop
vertex 31.9894248356512 0.0 0.9378108625
vertex 5.36834240087877 11.2171860977362 0.9378108625
vertex 6.1907291351336 11.1139485364942 0.9378108625
endloop
endfacet
facet normal 0.0 0.0 -1.0
outer loop
vertex 31.9894248356512 0.0 0.9378108625
vertex 6.1907291351336 11.1139485364942 0.9378108625
vertex 6.87795795086637 11.208635349134 0.9378108625
endloop
endfacet
facet normal 0.0 0.0 -1.0
outer loop
vertex 31.9894248356512 0.0 0.9378108625
vertex 6.87795795086637 11.208635349134 0.9378108625
vertex 7.01181356796724 11.2270780591122 0.9378108625
endloop
endfacet
facet normal 0.0 0.0 -1.0
outer loop
vertex 31.9894248356512 0.0 0.9378108625
vertex 7.01181356796724 11.2270780591122 0.9378108625
vertex 23.6150095312705 11.1138335167029 0.937810862500004
endloop
endfacet
facet normal 0.0 0.0 -1.0
outer loop
vertex 31.9894248356512 0.0 0.9378108625
vertex 23.6150095312705 11.1138335167029 0.937810862500004
vertex 31.9781482226742 14.8913642296572 0.9378108625
endloop
endfacet
facet normal 0.0 0.0 -1.0
outer loop
vertex 31.9894248356512 0.0 0.9378108625
vertex 31.9781482226742 14.8913642296572 0.9378108625
vertex 31.9894248356512 14.5453339385667 0.9378108625
endloop
endfacet
facet normal 1.67736791787965e-033 -7.22677950362052e-033 1.0
outer loop
vertex 0.0 0.0 5.52769012569999
vertex 3.10980636571574 13.4486967918333 5.5276901257
vertex 0.0 28.575 5.52769012569999
endloop
endfacet
facet normal 1.67736791787965e-033 -7.22677950362052e-033 1.0
outer loop
vertex 3.10980636571574 13.4486967918333 5.5276901257
vertex 0.0 0.0 5.52769012569999
vertex 3.43159338218282 12.6848702076123 5.5276901257
endloop
endfacet
facet normal 1.67736791787965e-033 -7.22677950362052e-033 1.0
outer loop
vertex 3.43159338218282 12.6848702076123 5.5276901257
vertex 0.0 0.0 5.52769012569999
vertex 3.94010863910488 12.0303549914355 5.5276901257
endloop
endfacet
facet normal 1.67736791787965e-033 -7.22677950362052e-033 1.0
outer loop
vertex 3.94010863910488 12.0303549914355 5.5276901257
vertex 0.0 0.0 5.52769012569999
vertex 4.60069766208388 11.5297552736477 5.5276901257
endloop
endfacet
facet normal 1.67736791787965e-033 -7.22677950362052e-033 1.0
outer loop
vertex 4.60069766208388 11.5297552736477 5.5276901257
vertex 0.0 0.0 5.52769012569999
vertex 31.9894248356512 0.0 5.52769012569999
endloop
endfacet
facet normal 1.67736791787965e-033 -7.22677950362052e-033 1.0
outer loop
vertex 0.0 28.575 5.52769012569999
vertex 3.10980636571574 13.4486967918333 5.5276901257
vertex 2.99667684309768 14.269781224667 5.5276901257
endloop
endfacet
facet normal 1.67736791787965e-033 -7.22677950362052e-033 1.0
outer loop
vertex 4.60069766208388 11.5297552736477 5.5276901257
vertex 31.9894248356512 0.0 5.52769012569999
vertex 5.36834240087877 11.2171860977362 5.5276901257
endloop
endfacet
facet normal 1.67736791787965e-033 -7.22677950362052e-033 1.0
outer loop
vertex 5.36834240087877 11.2171860977362 5.5276901257
vertex 31.9894248356512 0.0 5.52769012569999
vertex 6.1907291351336 11.1139485364942 5.5276901257
endloop
endfacet
facet normal 1.67736791787965e-033 -7.22677950362052e-033 1.0
outer loop
vertex 6.1907291351336 11.1139485364942 5.5276901257
vertex 31.9894248356512 0.0 5.52769012569999
vertex 6.87795795086637 11.208635349134 5.5276901257
endloop
endfacet
facet normal 1.67736791787965e-033 -7.22677950362052e-033 1.0
outer loop
vertex 6.87795795086637 11.208635349134 5.5276901257
vertex 31.9894248356512 0.0 5.52769012569999
vertex 7.01181356796724 11.2270780591122 5.5276901257
endloop
endfacet
facet normal 1.67736791787965e-033 -7.22677950362052e-033 1.0
outer loop
vertex 7.01181356796724 11.2270780591122 5.5276901257
vertex 31.9894248356512 0.0 5.52769012569999
vertex 23.6150095312705 11.1138335167029 5.5276901257
endloop
endfacet
facet normal 1.67736791787965e-033 -7.22677950362052e-033 1.0
outer loop
vertex 23.6150095312705 11.1138335167029 5.5276901257
vertex 31.9894248356512 0.0 5.52769012569999
vertex 23.6150095312705 17.4638335167029 5.5276901257
endloop
endfacet
facet normal 1.67736791787965e-033 -7.22677950362052e-033 1.0
outer loop
vertex 23.6150095312705 17.4638335167029 5.5276901257
vertex 31.9894248356512 0.0 5.52769012569999
vertex 31.9781482226742 14.8913642296572 5.52769012569999
endloop
endfacet
facet normal 1.67736791787965e-033 -7.22677950362052e-033 1.0
outer loop
vertex 31.9781482226742 14.8913642296572 5.52769012569999
vertex 31.9894248356512 0.0 5.52769012569999
vertex 31.9894248356512 14.5453339385667 5.52769012569999
endloop
endfacet
facet normal 1.67736791787965e-033 -7.22677950362052e-033 1.0
outer loop
vertex 44.1956990385249 0.0 5.52769012569999
vertex 51.8631565731866 10.9436203153405 5.5276901257
vertex 44.1956990385249 14.4861497733057 5.52769012569999
endloop
endfacet
facet normal 1.67736791787965e-033 -7.22677950362052e-033 1.0
outer loop
vertex 51.8631565731866 10.9436203153405 5.5276901257
vertex 44.1956990385249 0.0 5.52769012569999
vertex 76.2 0.0 5.52769012569999
endloop
endfacet
facet normal 1.67736791787965e-033 -7.22677950362052e-033 1.0
outer loop
vertex 51.8631565731866 10.9436203153405 5.5276901257
vertex 76.2 0.0 5.52769012569999
vertex 68.9483169037499 10.9548416653268 5.5276901257
endloop
endfacet
facet normal 1.67736791787965e-033 -7.22677950362052e-033 1.0
outer loop
vertex 68.9483169037499 10.9548416653268 5.5276901257
vertex 76.2 0.0 5.52769012569999
vertex 69.3256565731866 10.9818451809138 5.5276901257
endloop
endfacet
facet normal 1.67736791787965e-033 -7.22677950362052e-033 1.0
outer loop
vertex 69.3256565731866 10.9818451809138 5.5276901257
vertex 76.2 0.0 5.52769012569999
vertex 69.7750439911285 11.0140046412832 5.5276901257
endloop
endfacet
facet normal 1.67736791787965e-033 -7.22677950362052e-033 1.0
outer loop
vertex 69.7750439911285 11.0140046412832 5.5276901257
vertex 76.2 0.0 5.52769012569999
vertex 70.5582885311778 11.2851244030353 5.5276901257
endloop
endfacet
facet normal 1.67736791787965e-033 -7.22677950362052e-033 1.0
outer loop
vertex 70.5582885311778 11.2851244030353 5.5276901257
vertex 76.2 0.0 5.52769012569999
vertex 71.2446737028662 11.7497245868663 5.5276901257
endloop
endfacet
facet normal 1.67736791787965e-033 -7.22677950362052e-033 1.0
outer loop
vertex 71.2446737028662 11.7497245868663 5.5276901257
vertex 76.2 0.0 5.52769012569999
vertex 71.7874234910482 12.3761434580363 5.5276901257
endloop
endfacet
facet normal 1.67736791787965e-033 -7.22677950362052e-033 1.0
outer loop
vertex 71.7874234910482 12.3761434580363 5.5276901257
vertex 76.2 0.0 5.52769012569999
vertex 72.1495503945958 13.1216916056811 5.5276901257
endloop
endfacet
facet normal 1.67736791787965e-033 -7.22677950362052e-033 1.0
outer loop
vertex 72.1495503945958 13.1216916056811 5.5276901257
vertex 76.2 0.0 5.52769012569999
vertex 72.3063760634751 13.9355611556153 5.5276901257
endloop
endfacet
facet normal 1.67736791787965e-033 -7.22677950362052e-033 1.0
outer loop
vertex 0.0 28.575 5.52769012569999
vertex 5.33142509843686 17.3507039940848 5.5276901257
vertex 76.2 28.575 5.52769012569999
endloop
endfacet
facet normal 1.67736791787965e-033 -7.22677950362052e-033 1.0
outer loop
vertex 5.33142509843686 17.3507039940848 5.5276901257
vertex 0.0 28.575 5.52769012569999
vertex 4.56759851421585 17.0289169776178 5.5276901257
endloop
endfacet
facet normal 1.67736791787965e-033 -7.22677950362052e-033 1.0
outer loop
vertex 4.56759851421585 17.0289169776178 5.5276901257
vertex 0.0 28.575 5.52769012569999
vertex 3.91308329803901 16.5204017206957 5.5276901257
endloop
endfacet
facet normal 1.67736791787965e-033 -7.22677950362052e-033 1.0
outer loop
vertex 3.91308329803901 16.5204017206957 5.5276901257
vertex 0.0 28.575 5.52769012569999
vertex 3.41248358025126 15.8598126977167 5.5276901257
endloop
endfacet
facet normal 1.67736791787965e-033 -7.22677950362052e-033 1.0
outer loop
vertex 3.41248358025126 15.8598126977167 5.5276901257
vertex 0.0 28.575 5.52769012569999
vertex 3.09991440433969 15.0921679589218 5.5276901257
endloop
endfacet
facet normal 1.67736791787965e-033 -7.22677950362052e-033 1.0
outer loop
vertex 3.09991440433969 15.0921679589218 5.5276901257
vertex 0.0 28.575 5.52769012569999
vertex 2.99667684309768 14.269781224667 5.5276901257
endloop
endfacet
facet normal 1.67736791787965e-033 -7.22677950362052e-033 1.0
outer loop
vertex 76.2 28.575 5.52769012569999
vertex 5.33142509843686 17.3507039940848 5.5276901257
vertex 6.1525095312705 17.4638335167029 5.5276901257
endloop
endfacet
facet normal 1.67736791787965e-033 -7.22677950362052e-033 1.0
outer loop
vertex 76.2 28.575 5.52769012569999
vertex 6.1525095312705 17.4638335167029 5.5276901257
vertex 37.0988362237314 20.357046299724 5.52769012569999
endloop
endfacet
facet normal 1.67736791787965e-033 -7.22677950362052e-033 1.0
outer loop
vertex 37.0988362237314 20.357046299724 5.52769012569999
vertex 6.1525095312705 17.4638335167029 5.5276901257
vertex 23.6150095312705 17.4638335167029 5.5276901257
endloop
endfacet
facet normal 1.67736791787965e-033 -7.22677950362052e-033 1.0
outer loop
vertex 37.0988362237314 20.357046299724 5.52769012569999
vertex 23.6150095312705 17.4638335167029 5.5276901257
vertex 35.5620358746569 19.8911112721956 5.52769012569999
endloop
endfacet
facet normal 1.67736791787965e-033 -7.22677950362052e-033 1.0
outer loop
vertex 35.5620358746569 19.8911112721956 5.52769012569999
vertex 23.6150095312705 17.4638335167029 5.5276901257
vertex 34.1981935865406 19.0432993968725 5.52769012569999
endloop
endfacet
facet normal 1.67736791787965e-033 -7.22677950362052e-033 1.0
outer loop
vertex 34.1981935865406 19.0432993968725 5.52769012569999
vertex 23.6150095312705 17.4638335167029 5.5276901257
vertex 33.1002529574615 17.8713876519827 5.52769012569999
endloop
endfacet
facet normal 1.67736791787965e-033 -7.22677950362052e-033 1.0
outer loop
vertex 33.1002529574615 17.8713876519827 5.52769012569999
vertex 23.6150095312705 17.4638335167029 5.5276901257
vertex 32.3430368268588 16.4552398862646 5.52769012569999
endloop
endfacet
facet normal 1.67736791787965e-033 -7.22677950362052e-033 1.0
outer loop
vertex 32.3430368268588 16.4552398862646 5.52769012569999
vertex 23.6150095312705 17.4638335167029 5.5276901257
vertex 31.9781482226742 14.8913642296572 5.52769012569999
endloop
endfacet
facet normal 1.67736791787965e-033 -7.22677950362052e-033 1.0
outer loop
vertex 76.2 28.575 5.52769012569999
vertex 37.0988362237314 20.357046299724 5.52769012569999
vertex 38.7038642296572 20.4093517773258 5.52769012569999
endloop
endfacet
facet normal 1.67736791787965e-033 -7.22677950362052e-033 1.0
outer loop
vertex 76.2 28.575 5.52769012569999
vertex 38.7038642296572 20.4093517773258 5.52769012569999
vertex 40.2677398862646 20.0444631731412 5.52769012569999
endloop
endfacet
facet normal 1.67736791787965e-033 -7.22677950362052e-033 1.0
outer loop
vertex 76.2 28.575 5.52769012569999
vertex 40.2677398862646 20.0444631731412 5.52769012569999
vertex 41.6838876519827 19.2872470425385 5.52769012569999
endloop
endfacet
facet normal 1.67736791787965e-033 -7.22677950362052e-033 1.0
outer loop
vertex 76.2 28.575 5.52769012569999
vertex 41.6838876519827 19.2872470425385 5.52769012569999
vertex 42.8557993968726 18.1893064134594 5.52769012569999
endloop
endfacet
facet normal 1.67736791787965e-033 -7.22677950362052e-033 1.0
outer loop
vertex 76.2 28.575 5.52769012569999
vertex 42.8557993968726 18.1893064134594 5.52769012569999
vertex 43.7036112721956 16.8254641253431 5.52769012569999
endloop
endfacet
facet normal 1.67736791787965e-033 -7.22677950362052e-033 1.0
outer loop
vertex 76.2 28.575 5.52769012569999
vertex 43.7036112721956 16.8254641253431 5.52769012569999
vertex 44.169546299724 15.2886637762686 5.52769012569999
endloop
endfacet
facet normal 1.67736791787965e-033 -7.22677950362052e-033 1.0
outer loop
vertex 76.2 28.575 5.52769012569999
vertex 44.169546299724 15.2886637762686 5.52769012569999
vertex 44.1956990385249 14.4861497733057 5.52769012569999
endloop
endfacet
facet normal 1.67736791787965e-033 -7.22677950362052e-033 1.0
outer loop
vertex 76.2 28.575 5.52769012569999
vertex 44.1956990385249 14.4861497733057 5.52769012569999
vertex 51.8631565731866 17.2936203153405 5.5276901257
endloop
endfacet
facet normal 1.67736791787965e-033 -7.22677950362052e-033 1.0
outer loop
vertex 51.8631565731866 17.2936203153405 5.5276901257
vertex 44.1956990385249 14.4861497733057 5.52769012569999
vertex 51.8631565731866 10.9436203153405 5.5276901257
endloop
endfacet
facet normal 1.67736791787965e-033 -7.22677950362052e-033 1.0
outer loop
vertex 76.2 28.575 5.52769012569999
vertex 51.8631565731866 17.2936203153405 5.5276901257
vertex 69.3256565731866 17.2936203153405 5.5276901257
endloop
endfacet
facet normal 1.67736791787965e-033 -7.22677950362052e-033 1.0
outer loop
vertex 76.2 28.575 5.52769012569999
vertex 69.3256565731866 17.2936203153405 5.5276901257
vertex 70.1395261231208 17.1367946464612 5.5276901257
endloop
endfacet
facet normal 1.67736791787965e-033 -7.22677950362052e-033 1.0
outer loop
vertex 76.2 28.575 5.52769012569999
vertex 70.1395261231208 17.1367946464612 5.5276901257
vertex 70.8850742707656 16.7746677429136 5.5276901257
endloop
endfacet
facet normal 1.67736791787965e-033 -7.22677950362052e-033 1.0
outer loop
vertex 76.2 28.575 5.52769012569999
vertex 70.8850742707656 16.7746677429136 5.5276901257
vertex 71.5114931419355 16.2319179547315 5.5276901257
endloop
endfacet
facet normal 1.67736791787965e-033 -7.22677950362052e-033 1.0
outer loop
vertex 76.2 28.575 5.52769012569999
vertex 71.5114931419355 16.2319179547315 5.5276901257
vertex 71.9760933257666 15.5455327830431 5.5276901257
endloop
endfacet
facet normal 1.67736791787965e-033 -7.22677950362052e-033 1.0
outer loop
vertex 76.2 28.575 5.52769012569999
vertex 71.9760933257666 15.5455327830431 5.5276901257
vertex 72.2472130875187 14.7622882429939 5.5276901257
endloop
endfacet
facet normal 1.67736791787965e-033 -7.22677950362052e-033 1.0
outer loop
vertex 76.2 28.575 5.52769012569999
vertex 72.2472130875187 14.7622882429939 5.5276901257
vertex 72.3063760634751 13.9355611556153 5.5276901257
endloop
endfacet
facet normal 1.67736791787965e-033 -7.22677950362052e-033 1.0
outer loop
vertex 76.2 28.575 5.52769012569999
vertex 72.3063760634751 13.9355611556153 5.5276901257
vertex 76.2 0.0 5.52769012569999
endloop
endfacet
facet normal -0.0360411352665354 0.999350307234005 1.18768499299341e-019
outer loop
vertex 68.9483169037499 10.9548416653268 5.5276901257
vertex 69.3256565731866 10.9818451809138 0.937810862499998
vertex 68.9483169037499 10.9548416653268 0.937810862499998
endloop
endfacet
facet normal -0.0713803408278036 0.997449170105077 2.3738824416836e-019
outer loop
vertex 69.3256565731866 10.9818451809138 0.937810862499998
vertex 68.9483169037499 10.9548416653268 5.5276901257
vertex 69.7750439911285 11.0140046412832 0.937810862499998
endloop
endfacet
facet normal -0.200962914223702 0.979598850094628 1.1971832898474e-019
outer loop
vertex 69.7750439911285 11.0140046412832 0.937810862499998
vertex 68.9483169037499 10.9548416653268 5.5276901257
vertex 69.7750439911285 11.0140046412832 5.5276901257
endloop
endfacet
facet normal -0.200962914223702 0.979598850094628 1.1971832898474e-019
outer loop
vertex 69.7750439911285 11.0140046412832 5.5276901257
vertex 68.9483169037499 10.9548416653268 5.5276901257
vertex 69.3256565731866 10.9818451809138 5.5276901257
endloop
endfacet
facet normal -0.0950355052934544 -0.99547388350153 0.0
outer loop
vertex 69.3256565731866 17.2936203153405 5.5276901257
vertex 51.8631565731866 17.2936203153405 0.937810862499998
vertex 69.3256565731866 17.2936203153405 0.937810862499998
endloop
endfacet
facet normal 0.0 -1.0 0.0
outer loop
vertex 51.8631565731866 17.2936203153405 0.937810862499998
vertex 69.3256565731866 17.2936203153405 5.5276901257
vertex 51.8631565731866 17.2936203153405 5.5276901257
endloop
endfacet
facet normal -0.000656789128629743 0.999999784313997 0.0
outer loop
vertex 51.8631565731866 10.9436203153405 5.5276901257
vertex 68.9483169037499 10.9548416653268 0.937810862499998
vertex 51.8631565731866 10.9436203153405 0.937810862499998
endloop
endfacet
facet normal -0.0360411352665354 0.999350307234005 1.18768499299341e-019
outer loop
vertex 68.9483169037499 10.9548416653268 0.937810862499998
vertex 51.8631565731866 10.9436203153405 5.5276901257
vertex 68.9483169037499 10.9548416653268 5.5276901257
endloop
endfacet
facet normal -0.948838946811824 0.315760436111031 0.0
outer loop
vertex 72.1495503945958 13.1216916056811 5.5276901257
vertex 71.7874234910482 12.3761434580363 0.937810862499998
vertex 71.7874234910482 12.3761434580363 5.5276901257
endloop
endfacet
facet normal -0.834783229159045 0.550578750329867 0.0
outer loop
vertex 71.7874234910482 12.3761434580363 0.937810862499998
vertex 72.1495503945958 13.1216916056811 5.5276901257
vertex 72.1495503945958 13.1216916056811 0.937810862499998
endloop
endfacet
facet normal -0.200962914223702 0.979598850094628 1.1971832898474e-019
outer loop
vertex 69.7750439911285 11.0140046412832 5.5276901257
vertex 70.5582885311778 11.2851244030353 0.937810862499998
vertex 69.7750439911285 11.0140046412832 0.937810862499998
endloop
endfacet
facet normal -0.447654107940008 0.894206799149076 0.0
outer loop
vertex 70.5582885311778 11.2851244030353 0.937810862499998
vertex 69.7750439911285 11.0140046412832 5.5276901257
vertex 70.5582885311778 11.2851244030353 5.5276901257
endloop
endfacet
facet normal -0.998232858269873 0.0594235699900263 0.0
outer loop
vertex 72.3063760634751 13.9355611556153 5.5276901257
vertex 72.1495503945958 13.1216916056811 0.937810862499998
vertex 72.1495503945958 13.1216916056811 5.5276901257
endloop
endfacet
facet normal -0.948838946811824 0.315760436111031 0.0
outer loop
vertex 72.1495503945958 13.1216916056811 0.937810862499998
vertex 72.3063760634751 13.9355611556153 5.5276901257
vertex 72.3063760634751 13.9355611556153 0.937810862499998
endloop
endfacet
facet normal -0.834783229159045 0.550578750329867 0.0
outer loop
vertex 71.7874234910482 12.3761434580363 5.5276901257
vertex 71.2446737028662 11.7497245868663 0.937810862499998
vertex 71.2446737028662 11.7497245868663 5.5276901257
endloop
endfacet
facet normal -0.663838413983594 0.74787603258812 0.0
outer loop
vertex 71.2446737028662 11.7497245868663 0.937810862499998
vertex 71.7874234910482 12.3761434580363 5.5276901257
vertex 71.7874234910482 12.3761434580363 0.937810862499998
endloop
endfacet
facet normal -0.979598850094629 -0.200962914223698 0.0
outer loop
vertex 72.2472130875187 14.7622882429939 5.5276901257
vertex 72.3063760634751 13.9355611556153 0.937810862499998
vertex 72.3063760634751 13.9355611556153 5.5276901257
endloop
endfacet
facet normal -0.998232858269873 0.0594235699900263 0.0
outer loop
vertex 72.3063760634751 13.9355611556153 0.937810862499998
vertex 72.2472130875187 14.7622882429939 5.5276901257
vertex 72.2472130875187 14.7622882429939 0.937810862499998
endloop
endfacet
facet normal -0.894206799149076 -0.447654107940009 0.0
outer loop
vertex 71.9760933257666 15.5455327830431 5.5276901257
vertex 72.2472130875187 14.7622882429939 0.937810862499998
vertex 72.2472130875187 14.7622882429939 5.5276901257
endloop
endfacet
facet normal -0.979598850094629 -0.200962914223698 0.0
outer loop
vertex 72.2472130875187 14.7622882429939 0.937810862499998
vertex 71.9760933257666 15.5455327830431 5.5276901257
vertex 71.9760933257666 15.5455327830431 0.937810862499998
endloop
endfacet
facet normal -0.747876032588119 -0.663838413983595 0.0
outer loop
vertex 71.5114931419355 16.2319179547315 5.5276901257
vertex 71.9760933257666 15.5455327830431 0.937810862499998
vertex 71.9760933257666 15.5455327830431 5.5276901257
endloop
endfacet
facet normal -0.894206799149076 -0.447654107940009 0.0
outer loop
vertex 71.9760933257666 15.5455327830431 0.937810862499998
vertex 71.5114931419355 16.2319179547315 5.5276901257
vertex 71.5114931419355 16.2319179547315 0.937810862499998
endloop
endfacet
facet normal -0.747876032588119 -0.663838413983595 0.0
outer loop
vertex 71.5114931419355 16.2319179547315 5.5276901257
vertex 70.8850742707656 16.7746677429136 0.937810862499998
vertex 71.5114931419355 16.2319179547315 0.937810862499998
endloop
endfacet
facet normal -0.550578750329865 -0.834783229159046 0.0
outer loop
vertex 70.8850742707656 16.7746677429136 0.937810862499998
vertex 71.5114931419355 16.2319179547315 5.5276901257
vertex 70.8850742707656 16.7746677429136 5.5276901257
endloop
endfacet
facet normal -0.550578750329865 -0.834783229159046 0.0
outer loop
vertex 70.8850742707656 16.7746677429136 5.5276901257
vertex 70.1395261231208 17.1367946464612 0.937810862499998
vertex 70.8850742707656 16.7746677429136 0.937810862499998
endloop
endfacet
facet normal -0.315760436111035 -0.948838946811823 0.0
outer loop
vertex 70.1395261231208 17.1367946464612 0.937810862499998
vertex 70.8850742707656 16.7746677429136 5.5276901257
vertex 70.1395261231208 17.1367946464612 5.5276901257
endloop
endfacet
facet normal -0.315760436111035 -0.948838946811823 0.0
outer loop
vertex 70.1395261231208 17.1367946464612 5.5276901257
vertex 69.3256565731866 17.2936203153405 0.937810862499998
vertex 70.1395261231208 17.1367946464612 0.937810862499998
endloop
endfacet
facet normal -0.0950355052934544 -0.99547388350153 0.0
outer loop
vertex 69.3256565731866 17.2936203153405 0.937810862499998
vertex 70.1395261231208 17.1367946464612 5.5276901257
vertex 69.3256565731866 17.2936203153405 5.5276901257
endloop
endfacet
facet normal -0.447654107940008 0.894206799149076 0.0
outer loop
vertex 70.5582885311778 11.2851244030353 5.5276901257
vertex 71.2446737028662 11.7497245868663 0.937810862499998
vertex 70.5582885311778 11.2851244030353 0.937810862499998
endloop
endfacet
facet normal -0.663838413983594 0.74787603258812 0.0
outer loop
vertex 71.2446737028662 11.7497245868663 0.937810862499998
vertex 70.5582885311778 11.2851244030353 5.5276901257
vertex 71.2446737028662 11.7497245868663 5.5276901257
endloop
endfacet
endsolid Hotend_base_plate10272012_3
